<?xml version="1.0" standalone="no"?>
<!DOCTYPE svg PUBLIC "-//W3C//DTD SVG 20010904//EN"
 "http://www.w3.org/TR/2001/REC-SVG-20010904/DTD/svg10.dtd">
<svg version="1.0" xmlns="http://www.w3.org/2000/svg"
 width="950.000000pt" height="475.000000pt" viewBox="0 0 950.000000 475.000000"
 preserveAspectRatio="xMidYMid meet">

<g transform="translate(0.000000,475.000000) scale(0.100000,-0.100000)"
fill="#000000" stroke="none">
<path d="M0 4715 c0 -19 2 -35 5 -35 3 0 240 -59 526 -130 505 -127 522 -132
573 -170 48 -36 54 -38 91 -30 22 5 42 10 45 10 4 0 12 -16 19 -36 10 -27 29
-46 81 -80 38 -24 73 -44 79 -44 26 0 7 34 -44 81 -57 53 -80 99 -88 177 -3
23 -1 42 4 42 5 0 9 8 9 17 0 15 -1 15 -14 -2 -12 -16 -17 -17 -57 -6 -24 7
-52 13 -61 14 -10 1 -18 4 -18 8 0 7 -40 22 -53 20 -4 -1 -3 8 3 19 13 24 16
24 68 6 25 -9 44 -11 47 -5 6 9 -1 13 -17 10 -5 0 -8 3 -8 8 0 5 -9 13 -20 16
-30 9 -46 44 -24 52 9 3 25 1 36 -6 10 -6 24 -9 30 -5 6 4 8 3 5 -3 -3 -5 8
-18 25 -28 l32 -18 -23 32 c-13 17 -34 39 -47 48 -32 21 -27 48 8 48 15 1 25
-2 22 -7 -3 -4 10 -14 28 -23 29 -14 30 -14 14 0 -11 8 -17 15 -13 15 4 0 3 9
-3 20 -10 18 -21 20 -107 20 -83 0 -94 -2 -83 -15 7 -8 10 -25 6 -40 -8 -30
-33 -32 -97 -10 -45 16 -58 10 -59 -26 0 -18 -36 -53 -64 -63 -10 -3 -50 4
-89 16 -79 26 -112 61 -103 111 l6 27 -293 -1 -292 -1 85 -23 c47 -12 237 -61
422 -108 l338 -85 42 16 c24 8 51 22 60 30 19 16 52 9 46 -11 -3 -6 -16 -13
-29 -13 -13 -1 -41 -9 -63 -18 -21 -9 -47 -16 -58 -16 -18 0 -311 74 -755 190
-84 22 -157 40 -163 40 -5 0 -10 -16 -10 -35z m1256 -225 c14 -6 24 -16 21
-23 -4 -12 -50 -15 -139 -6 -41 3 -48 7 -48 26 0 20 3 21 70 17 38 -2 81 -9
96 -14z"/>
<path d="M1118 4483 c7 -3 16 -2 19 1 4 3 -2 6 -13 5 -11 0 -14 -3 -6 -6z"/>
<path d="M1178 4473 c6 -2 18 -2 25 0 6 3 1 5 -13 5 -14 0 -19 -2 -12 -5z"/>
<path d="M1228 4473 c7 -3 16 -2 19 1 4 3 -2 6 -13 5 -11 0 -14 -3 -6 -6z"/>
<path d="M686 4742 c-11 -18 1 -73 20 -86 10 -8 45 -22 78 -32 51 -16 61 -16
84 -3 15 8 31 31 40 56 15 47 23 48 101 17 37 -16 51 -11 51 16 0 12 -11 22
-33 29 -41 14 -230 13 -221 -1 3 -5 16 -7 28 -4 16 4 23 1 23 -9 0 -17 -27
-12 -64 11 -24 15 -99 19 -107 6z"/>
<path d="M1322 4717 c23 -36 37 -42 23 -10 -5 10 -9 22 -9 28 -1 5 -9 11 -19
13 -16 3 -16 0 5 -31z"/>
<path d="M1400 4705 c17 -39 18 -47 5 -51 -8 -4 -15 -10 -15 -15 0 -15 27 2
39 24 6 12 10 15 7 6 -5 -17 9 -18 101 -5 12 2 20 0 18 -4 -6 -10 51 -31 59
-23 7 8 -95 74 -104 68 -4 -2 -13 7 -20 20 -11 21 -21 25 -61 25 l-48 0 19
-45z"/>
<path d="M1505 4741 c7 -12 116 -75 130 -76 6 -1 24 9 40 22 l31 22 154 -50
c85 -27 209 -62 275 -78 66 -16 239 -59 384 -96 146 -36 273 -64 283 -62 10 3
16 1 12 -4 -8 -13 10 -11 25 4 11 10 12 9 6 -3 -5 -8 3 -5 16 7 69 63 188 57
253 -13 25 -27 36 -56 51 -127 5 -24 18 -34 78 -61 40 -18 106 -45 147 -60 41
-15 88 -34 104 -41 24 -11 32 -11 43 0 41 42 103 18 103 -39 0 -34 2 -35 180
-135 171 -96 182 -101 203 -86 12 8 29 15 39 15 27 0 58 -37 58 -69 0 -25 10
-36 61 -70 34 -23 66 -38 72 -34 5 3 7 2 4 -3 -3 -6 4 -16 16 -24 20 -12 21
-12 8 3 -16 20 -1 23 18 5 9 -8 11 -8 8 -2 -4 7 0 15 9 18 8 3 13 2 10 -3 -3
-4 8 -20 24 -36 26 -24 28 -25 23 -7 -5 20 -3 21 27 12 18 -5 41 -18 51 -29
10 -10 31 -25 48 -32 17 -8 31 -20 31 -26 0 -17 35 -17 52 0 18 17 39 20 141
21 l89 1 55 -72 c55 -72 71 -87 59 -58 -3 9 8 30 25 50 26 30 38 35 73 35 30
0 48 6 61 20 12 14 22 17 29 10 6 -6 3 -16 -9 -30 -14 -16 -28 -20 -54 -17
-46 5 -81 -29 -80 -76 0 -18 3 -26 6 -19 9 22 25 13 18 -10 l-6 -23 18 22 c28
35 64 44 101 26 18 -9 32 -22 32 -29 0 -18 -10 -17 -34 1 -11 8 -26 15 -34 15
-21 0 -41 -25 -32 -40 5 -7 7 -22 5 -32 -3 -12 2 -18 15 -18 27 0 69 -41 72
-70 2 -14 7 -31 11 -37 5 -7 4 -13 -1 -13 -5 0 -9 -6 -10 -12 0 -7 -3 -32 -6
-55 -2 -24 -2 -43 2 -43 4 0 13 -13 20 -30 7 -16 21 -32 31 -35 24 -7 51 4 51
22 0 8 4 12 9 8 6 -3 15 4 21 15 20 37 46 -9 30 -50 -1 -3 -2 -9 -1 -14 1 -5
-4 -5 -11 1 -8 6 -21 7 -33 2 -34 -13 -71 -10 -96 10 -19 14 -37 18 -74 16
-32 -3 -44 -1 -35 6 8 5 10 9 4 9 -37 0 -41 -63 -6 -98 10 -10 28 -34 41 -55
29 -47 48 -47 68 0 25 60 62 87 133 95 14 2 24 9 22 16 -1 8 1 11 6 8 5 -3 16
4 26 15 13 16 27 20 64 18 51 -3 52 -2 38 68 -5 27 0 38 34 78 22 25 40 43 40
39 0 -17 29 32 30 49 0 22 -45 66 -82 79 -14 5 -31 22 -37 37 -14 32 -59 61
-96 61 -20 0 -29 -7 -38 -30 -10 -27 -37 -36 -52 -17 -3 4 -2 5 2 2 4 -3 14 9
23 27 9 21 24 34 38 36 12 2 20 8 17 13 -4 5 -1 9 4 9 6 0 11 -4 11 -10 0 -5
10 -10 23 -10 19 0 17 3 -10 16 -18 9 -33 21 -33 26 0 6 -7 7 -16 4 -8 -3 -13
-2 -10 2 13 21 -80 65 -114 54 -8 -2 -22 -11 -32 -19 -23 -20 -36 3 -14 25 36
36 192 7 170 -31 -4 -7 -3 -9 1 -4 5 4 16 0 25 -8 19 -17 42 -24 115 -34 28
-4 56 -10 63 -14 17 -12 3 -30 -17 -22 -30 13 -101 16 -101 4 0 -6 7 -8 16 -5
8 3 12 2 9 -4 -3 -6 1 -10 9 -10 9 0 15 -3 14 -7 -8 -30 50 -92 73 -78 5 4 8
1 7 -6 -2 -7 4 -14 14 -16 15 -4 15 0 1 39 -8 24 -19 48 -24 54 -6 7 -4 16 7
25 13 11 17 10 25 -2 5 -8 9 -22 9 -32 0 -24 29 -80 47 -90 35 -21 93 -147 93
-204 0 -13 5 -23 12 -23 6 0 8 -3 5 -6 -7 -7 50 -64 63 -64 4 0 16 -12 26 -27
13 -21 17 -44 16 -87 -2 -35 2 -64 10 -73 15 -19 33 -49 52 -89 16 -34 23
-148 10 -178 -4 -12 -4 -17 2 -13 6 3 16 -10 23 -29 13 -35 31 -46 31 -19 0
35 18 11 29 -40 13 -55 24 -68 35 -39 5 14 9 13 36 -3 16 -9 30 -23 30 -30 0
-13 12 -17 38 -14 31 4 125 -101 114 -128 -4 -11 0 -13 16 -9 23 6 31 -7 10
-15 -10 -3 -10 -7 -1 -17 6 -7 9 -19 6 -26 -3 -8 3 -17 13 -21 23 -9 70 -54
67 -65 -3 -9 34 -21 46 -14 5 4 11 2 13 -4 4 -11 137 -53 256 -79 88 -20 109
-31 187 -96 100 -84 282 -209 375 -258 133 -71 164 -93 292 -215 63 -59 138
-127 167 -152 30 -25 86 -72 125 -105 39 -34 117 -97 174 -140 57 -44 143
-111 190 -149 101 -81 181 -133 311 -206 52 -29 125 -72 162 -96 36 -24 77
-44 91 -44 13 0 42 -15 64 -33 62 -53 152 -111 241 -156 45 -22 84 -45 88 -51
15 -24 -43 -189 -115 -330 l-20 -40 265 0 265 0 0 84 c0 75 -2 85 -22 100
l-23 17 22 -11 23 -11 0 2286 0 2285 -4001 0 c-2490 0 -3998 -4 -3994 -9z
m4280 -681 c3 -5 1 -10 -4 -10 -6 0 -11 5 -11 10 0 6 2 10 4 10 3 0 8 -4 11
-10z m825 -244 c0 -3 -4 -8 -10 -11 -5 -3 -10 -1 -10 4 0 6 5 11 10 11 6 0 10
-2 10 -4z m-2250 -126 c0 -5 -2 -10 -4 -10 -3 0 -8 5 -11 10 -3 6 -1 10 4 10
6 0 11 -4 11 -10z m207 -95 c0 -8 -4 -15 -9 -15 -10 0 -11 14 -1 23 9 10 10 9
10 -8z m650 -81 c-2 -13 0 -21 4 -18 5 3 6 -8 3 -24 -8 -40 18 -78 64 -93 44
-14 69 -34 88 -71 21 -41 17 -71 -13 -100 -54 -51 -160 -45 -182 10 -17 43
-17 57 -2 57 8 0 15 -11 16 -24 6 -80 145 -78 158 1 2 18 0 39 -5 46 -6 6 -7
12 -3 12 17 0 -42 37 -70 44 -16 4 -33 13 -37 19 -4 7 -13 12 -19 12 -7 0 -13
11 -14 25 -1 14 -5 46 -9 72 -5 26 -5 51 -1 57 11 19 27 0 22 -25z m983 -34
c0 -5 -4 -10 -10 -10 -5 0 -10 5 -10 10 0 6 5 10 10 10 6 0 10 -4 10 -10z
m570 0 c0 -5 -2 -10 -4 -10 -3 0 -8 5 -11 10 -3 6 -1 10 4 10 6 0 11 -4 11
-10z m-570 -74 c0 -3 -4 -8 -10 -11 -5 -3 -10 -1 -10 4 0 6 5 11 10 11 6 0 10
-2 10 -4z m740 0 c0 -3 -4 -8 -10 -11 -5 -3 -10 -1 -10 4 0 6 5 11 10 11 6 0
10 -2 10 -4z m80 -6 c0 -5 -4 -10 -10 -10 -5 0 -10 5 -10 10 0 6 5 10 10 10 6
0 10 -4 10 -10z m1150 0 c0 -5 -4 -10 -10 -10 -5 0 -10 5 -10 10 0 6 5 10 10
10 6 0 10 -4 10 -10z m820 0 c0 -5 -4 -10 -10 -10 -5 0 -10 5 -10 10 0 6 5 10
10 10 6 0 10 -4 10 -10z m-825 -80 c3 -5 1 -10 -4 -10 -6 0 -11 5 -11 10 0 6
2 10 4 10 3 0 8 -4 11 -10z m165 -330 c0 -5 -2 -10 -4 -10 -3 0 -8 5 -11 10
-3 6 -1 10 4 10 6 0 11 -4 11 -10z m-160 -80 c0 -5 -4 -10 -10 -10 -5 0 -10 5
-10 10 0 6 5 10 10 10 6 0 10 -4 10 -10z m-2220 -250 c0 -5 -2 -10 -4 -10 -3
0 -8 5 -11 10 -3 6 -1 10 4 10 6 0 11 -4 11 -10z m330 -324 c0 -11 -19 -15
-25 -6 -3 5 1 10 9 10 9 0 16 -2 16 -4z m0 -86 c0 -5 -7 -10 -15 -10 -8 0 -15
5 -15 10 0 6 7 10 15 10 8 0 15 -4 15 -10z m1400 -324 c0 -3 -4 -8 -10 -11 -5
-3 -10 -1 -10 4 0 6 5 11 10 11 6 0 10 -2 10 -4z m1720 -166 c0 -5 -4 -10 -10
-10 -5 0 -10 5 -10 10 0 6 5 10 10 10 6 0 10 -4 10 -10z m0 -80 c0 -5 -5 -10
-11 -10 -5 0 -7 5 -4 10 3 6 8 10 11 10 2 0 4 -4 4 -10z m-1560 -250 c0 -5 -4
-10 -10 -10 -5 0 -10 5 -10 10 0 6 5 10 10 10 6 0 10 -4 10 -10z m80 0 c0 -5
-4 -10 -10 -10 -5 0 -10 5 -10 10 0 6 5 10 10 10 6 0 10 -4 10 -10z m0 -80 c0
-5 -5 -10 -11 -10 -5 0 -7 5 -4 10 3 6 8 10 11 10 2 0 4 -4 4 -10z m1400 -410
c0 -5 -4 -10 -10 -10 -5 0 -10 5 -10 10 0 6 5 10 10 10 6 0 10 -4 10 -10z"/>
<path d="M1215 4690 c10 -11 20 -20 23 -20 3 0 -3 9 -13 20 -10 11 -20 20 -23
20 -3 0 3 -9 13 -20z"/>
<path d="M1310 4686 c0 -2 8 -10 18 -17 15 -13 16 -12 3 4 -13 16 -21 21 -21
13z"/>
<path d="M1660 4650 c-25 -23 -37 -38 -27 -34 10 3 17 3 15 -2 -1 -5 10 -29
26 -54 15 -25 26 -38 23 -29 -4 13 13 21 83 42 114 35 140 35 140 3 0 -22 -8
-26 -87 -48 l-88 -23 75 -3 c106 -3 122 -8 118 -35 -3 -20 -9 -22 -78 -25 -41
-2 -79 -8 -85 -14 -7 -8 -4 -9 9 -4 11 4 22 3 25 -2 3 -4 31 -15 61 -23 48
-12 55 -17 55 -39 0 -23 -3 -25 -40 -22 -22 1 -52 3 -67 4 -16 1 -28 5 -28 10
0 4 -6 8 -12 8 -7 -1 1 -12 17 -26 17 -13 38 -23 48 -20 9 2 15 0 12 -4 -3 -5
6 -17 20 -27 31 -22 25 -56 -9 -51 -13 2 -20 -2 -18 -10 1 -8 -2 -11 -7 -7 -6
3 -7 13 -4 22 4 11 3 14 -5 9 -7 -4 -12 -3 -12 2 0 10 -60 38 -73 34 -5 -1
-17 8 -28 20 l-20 23 16 -27 c9 -15 25 -30 36 -33 11 -4 16 -11 12 -18 -5 -8
-2 -8 9 1 13 10 18 9 29 -5 9 -11 10 -14 2 -9 -23 13 -14 -12 13 -39 21 -21
23 -29 14 -40 -17 -20 -34 -19 -55 5 -10 11 -22 17 -28 13 -5 -3 -7 -1 -4 4 4
6 1 16 -7 22 -11 9 -15 9 -20 -1 -3 -8 -5 -6 -3 4 1 9 -2 17 -7 16 -5 0 -13 6
-17 14 -6 9 -9 9 -9 1 0 -6 16 -39 36 -72 35 -59 39 -91 11 -91 -19 0 -28 11
-87 109 -27 45 -44 81 -38 81 6 0 9 2 6 5 -3 3 -25 -3 -49 -13 -32 -13 -54
-16 -79 -11 -19 4 -36 6 -37 5 -1 -1 5 -30 15 -65 l17 -63 145 -75 c151 -77
162 -86 288 -230 39 -45 86 -92 104 -104 29 -21 31 -21 26 -3 -33 113 -33 112
-15 149 24 50 11 70 -45 70 -37 0 -43 3 -46 23 -2 12 -10 22 -18 22 -8 0 -12
5 -9 10 4 6 11 8 16 5 5 -4 9 13 9 36 0 49 27 111 67 154 16 16 27 33 25 38
-1 5 1 6 6 3 5 -3 29 5 53 17 52 26 164 35 225 18 77 -21 174 -132 174 -199 0
-16 -8 -23 -35 -28 -37 -7 -70 10 -58 29 3 6 1 7 -6 3 -7 -5 -8 -13 -4 -19 5
-7 10 -25 11 -42 3 -30 22 -52 95 -107 28 -22 37 -37 43 -73 4 -32 11 -45 23
-46 9 0 59 0 111 1 108 1 99 -3 238 114 45 38 83 76 83 83 1 7 2 18 3 25 2 22
23 19 39 -6 13 -19 38 -29 131 -52 101 -25 119 -26 153 -15 34 11 43 10 85 -9
29 -12 54 -32 62 -48 11 -22 38 -36 143 -75 87 -33 137 -47 153 -42 20 4 42
-6 105 -52 44 -32 89 -65 99 -75 11 -10 23 -18 28 -18 4 0 14 -12 21 -26 19
-37 113 -75 159 -64 18 4 25 8 14 9 -12 1 -16 6 -12 17 3 9 6 18 6 20 0 3 4 3
9 -1 5 -3 13 0 17 6 5 9 -3 10 -30 5 -22 -4 -36 -3 -36 3 0 6 6 8 14 5 8 -3
17 0 21 6 8 14 -16 40 -61 67 -18 10 -89 53 -159 96 -99 61 -130 75 -137 65
-7 -9 -8 -8 -4 5 5 16 2 18 -22 13 -32 -7 -48 2 -53 29 -6 29 -322 175 -446
204 -70 17 -98 20 -106 12 -15 -15 -52 -14 -65 2 -5 6 -10 26 -9 42 0 17 2 25
4 19 2 -6 15 -9 30 -6 17 3 30 -1 37 -11 7 -8 58 -27 115 -42 68 -18 161 -55
268 -106 109 -53 176 -79 200 -79 26 0 36 -5 40 -20 4 -15 121 -100 138 -100
2 0 52 -29 111 -65 73 -45 111 -62 118 -55 15 15 29 12 23 -4 -7 -18 12 -36
37 -36 10 0 16 3 12 8 -7 7 -12 8 -38 11 -9 1 -9 4 -1 12 6 6 9 18 6 25 -6 17
9 18 25 2 6 -6 14 -9 17 -7 3 3 -27 28 -65 56 -62 45 -75 50 -108 46 -42 -6
-72 14 -72 46 0 18 -57 55 -276 179 -74 42 -97 51 -121 46 -38 -7 -71 9 -75
38 -2 18 -31 33 -170 88 -91 36 -173 72 -182 79 -11 9 -16 10 -16 2 0 -22 -11
-39 -56 -87 -12 -13 -19 -26 -15 -29 3 -4 -1 -6 -9 -4 -8 1 -34 -3 -57 -10
-33 -9 -53 -9 -85 0 -24 6 -45 12 -48 12 -17 3 -72 76 -82 108 -6 23 -15 36
-22 32 -6 -4 -5 1 3 11 13 15 13 19 0 27 -8 5 -9 9 -3 9 14 0 25 48 13 56 -4
2 -6 10 -3 18 3 9 -20 19 -78 33 -443 111 -811 209 -897 238 -58 19 -107 35
-110 35 -4 0 -26 -18 -51 -40z m20 -19 c0 -5 -6 -14 -14 -20 -12 -10 -13 -8
-9 8 5 21 23 30 23 12z m455 -101 c24 -9 26 -14 20 -43 -10 -44 -17 -50 -56
-40 -38 10 -45 26 -30 66 11 29 25 33 66 17z m143 -35 c3 -3 1 -22 -4 -43 -8
-33 -12 -37 -39 -34 -42 5 -56 19 -49 51 4 14 9 30 12 35 5 8 70 2 80 -9z
m106 -21 c33 -13 16 -84 -19 -84 -51 0 -68 26 -49 74 6 16 39 21 68 10z m143
-37 c7 -8 -7 -66 -18 -73 -6 -3 -26 -3 -45 0 -37 7 -42 23 -25 69 9 23 13 24
46 17 20 -5 39 -11 42 -13z m122 -31 c18 -21 -9 -76 -37 -76 -42 0 -63 18 -56
48 4 15 11 32 15 38 11 13 65 6 78 -10z m135 -31 c9 -23 -22 -47 -45 -35 -19
11 -25 31 -12 43 12 13 51 7 57 -8z m-17 -101 c-4 -27 -2 -34 9 -30 7 3 16 0
20 -6 4 -7 3 -8 -4 -4 -16 10 -15 -7 1 -23 8 -10 8 -12 0 -7 -6 3 -14 2 -18
-4 -10 -16 -42 -12 -49 7 -5 11 1 23 16 34 l22 17 -24 4 c-28 3 -38 31 -20 53
9 11 17 12 32 4 15 -8 18 -18 15 -45z m-187 30 c0 -8 -5 -12 -10 -9 -6 4 -8
11 -5 16 9 14 15 11 15 -7z m80 0 c0 -8 -5 -12 -10 -9 -6 4 -8 11 -5 16 9 14
15 11 15 -7z m-80 -84 c0 -5 -2 -10 -4 -10 -3 0 -8 5 -11 10 -3 6 -1 10 4 10
6 0 11 -4 11 -10z m237 -61 c2 -23 -22 -43 -42 -35 -15 5 -21 37 -9 49 13 13
50 3 51 -14z m-317 -19 c0 -5 -4 -10 -10 -10 -5 0 -10 5 -10 10 0 6 5 10 10
10 6 0 10 -4 10 -10z m80 0 c0 -5 -4 -10 -10 -10 -5 0 -10 5 -10 10 0 6 5 10
10 10 6 0 10 -4 10 -10z m557 4 c-3 -3 -12 -4 -19 -1 -8 3 -5 6 6 6 11 1 17
-2 13 -5z m183 -4 c0 -5 -2 -10 -4 -10 -3 0 -8 5 -11 10 -3 6 -1 10 4 10 6 0
11 -4 11 -10z m-452 -48 c-4 -22 -46 -28 -54 -8 -4 9 -1 23 6 31 16 19 53 1
48 -23z m47 8 c-3 -5 1 -10 9 -10 14 0 15 -27 1 -50 -7 -12 -34 -13 -37 -2 -5
26 -4 61 3 57 4 -3 10 -1 14 5 3 5 8 10 11 10 3 0 2 -4 -1 -10z m-1075 -126
c0 -8 -5 -12 -10 -9 -6 4 -8 11 -5 16 9 14 15 11 15 -7z"/>
<path d="M2083 4514 c-8 -23 2 -49 21 -52 20 -4 36 13 36 39 0 21 -49 32 -57
13z"/>
<path d="M2205 4472 c-7 -27 7 -42 38 -42 12 0 17 8 17 29 0 22 -5 30 -24 33
-20 4 -26 0 -31 -20z"/>
<path d="M2326 4444 c-8 -31 -8 -30 25 -39 23 -6 27 -3 32 22 3 15 5 28 4 29
-1 1 -14 4 -28 8 -23 5 -28 2 -33 -20z"/>
<path d="M2457 4434 c-4 -4 -7 -18 -7 -30 0 -27 38 -44 51 -23 12 18 11 49 0
49 -5 0 -16 2 -23 5 -8 3 -17 2 -21 -1z"/>
<path d="M2577 4383 c-6 -33 -8 -30 23 -35 20 -2 26 2 28 21 7 44 -43 57 -51
14z"/>
<path d="M2740 4365 c0 -8 5 -15 10 -15 6 0 10 7 10 15 0 8 -4 15 -10 15 -5 0
-10 -7 -10 -15z"/>
<path d="M2730 4290 c0 -5 5 -10 10 -10 6 0 10 5 10 10 0 6 -4 10 -10 10 -5 0
-10 -4 -10 -10z"/>
<path d="M2740 4215 c0 -8 5 -15 10 -15 6 0 10 7 10 15 0 8 -4 15 -10 15 -5 0
-10 -7 -10 -15z"/>
<path d="M2772 4149 c2 -6 8 -10 13 -10 5 0 11 4 13 10 2 6 -4 11 -13 11 -9 0
-15 -5 -13 -11z"/>
<path d="M2830 4094 c0 -8 5 -12 10 -9 6 3 10 10 10 16 0 5 -4 9 -10 9 -5 0
-10 -7 -10 -16z"/>
<path d="M2900 4066 c0 -9 5 -16 10 -16 6 0 10 4 10 9 0 6 -4 13 -10 16 -5 3
-10 -1 -10 -9z"/>
<path d="M1360 4665 c0 -8 4 -15 10 -15 5 0 7 7 4 15 -4 8 -8 15 -10 15 -2 0
-4 -7 -4 -15z"/>
<path d="M0 2334 l0 -2334 4061 0 c3609 0 4060 2 4049 15 -7 8 -18 15 -24 15
-7 0 -25 10 -42 23 -22 17 -29 30 -30 57 0 19 -2 44 -5 55 -3 13 2 20 16 23
11 2 28 13 38 24 15 15 21 17 34 7 13 -11 12 -14 -5 -20 -33 -13 -33 -25 2
-57 l34 -31 16 40 c9 21 18 39 21 39 3 0 4 -23 3 -52 -3 -49 -1 -53 25 -66 16
-8 31 -20 34 -28 3 -8 11 -14 18 -14 7 0 15 -6 18 -14 4 -9 28 -14 84 -15 l78
-1 62 82 c117 157 165 239 107 180 -17 -16 -17 -16 -11 0 6 17 -6 31 -32 35
-8 1 -17 7 -21 13 -4 6 -26 13 -50 16 -25 3 -65 14 -90 24 -25 10 -72 28 -105
40 -33 12 -68 26 -77 31 -10 5 -23 6 -31 3 -8 -3 -22 7 -32 23 -10 15 -24 32
-32 36 -7 5 -10 13 -7 19 4 7 2 8 -4 4 -7 -4 -24 5 -39 19 -21 19 -35 24 -55
20 -18 -4 -45 2 -81 19 -37 18 -71 26 -107 26 -38 0 -57 5 -69 18 -15 17 -30
21 -89 23 -18 1 -21 4 -11 15 17 20 8 25 -29 15 -19 -6 -34 -6 -37 0 -3 5 -20
7 -38 6 -18 -2 -36 -1 -42 3 -25 17 -127 32 -172 27 -49 -7 -146 12 -166 32
-6 6 -21 11 -33 11 -26 0 -90 26 -124 50 -14 10 -42 21 -62 25 -35 7 -36 8
-31 43 4 30 3 35 -7 25 -10 -9 -16 -8 -28 3 -8 8 -21 13 -29 10 -8 -4 -17 3
-23 17 -5 12 -9 16 -9 10 -1 -7 -14 -13 -29 -13 -15 0 -33 -5 -40 -12 -7 -7
-12 -8 -12 -3 0 5 -12 -3 -27 -17 -25 -23 -54 -33 -89 -29 -6 1 -18 17 -27 36
-20 41 -28 43 -59 11 -18 -18 -29 -21 -48 -16 -24 8 -24 8 -2 9 21 1 50 46 37
59 -3 3 -5 -1 -5 -9 0 -8 -8 -4 -20 11 -10 14 -22 22 -26 18 -3 -4 -14 -3 -24
2 -11 6 -26 4 -43 -5 -23 -12 -25 -11 -20 3 4 14 3 14 -5 3 -12 -17 12 -57 39
-66 9 -3 29 -17 45 -30 16 -14 54 -32 84 -41 30 -9 62 -21 70 -28 8 -7 23 -16
32 -19 9 -3 24 -22 33 -41 15 -32 15 -37 1 -57 -14 -21 -13 -23 17 -38 59 -30
158 -201 116 -201 -11 0 -70 30 -79 41 -12 13 -75 39 -97 39 -19 0 -24 -5 -21
-23 2 -12 13 -32 26 -43 15 -14 20 -28 16 -40 -6 -18 -6 -18 9 1 13 16 17 17
31 6 9 -7 13 -17 10 -22 -3 -5 4 -9 15 -9 12 0 21 -4 21 -10 0 -5 7 -10 16
-10 11 0 14 -6 9 -22 -5 -16 -4 -20 3 -13 5 6 13 19 16 30 3 11 3 7 1 -10 -3
-16 -7 -40 -9 -53 -2 -12 -5 -25 -8 -27 -3 -3 -25 16 -51 42 -25 27 -84 82
-130 123 -47 41 -85 80 -84 85 0 6 -9 41 -22 80 -12 39 -25 111 -28 163 -6 89
-7 94 -33 107 -15 8 -41 26 -58 40 -27 22 -34 24 -53 14 l-22 -11 24 -19 c31
-23 34 -64 8 -101 -14 -19 -19 -37 -15 -52 6 -25 -11 -86 -24 -86 -12 0 -69
-120 -64 -135 8 -20 -16 -29 -33 -13 -9 10 -18 49 -23 111 -4 53 -11 100 -14
105 -3 5 -10 41 -16 80 -11 66 -9 79 15 164 15 51 44 132 66 181 21 48 39 95
39 105 0 11 14 47 31 81 41 82 45 83 244 107 28 3 64 6 80 5 23 0 27 2 15 10
-22 14 57 1 95 -17 17 -7 45 -27 62 -42 l33 -29 -24 -26 c-12 -13 -33 -28 -46
-32 -12 -4 -43 -22 -67 -41 -31 -24 -56 -34 -84 -36 -21 0 -44 -1 -51 -2 -11
-1 -24 18 -42 59 -3 6 -9 3 -15 -5 -15 -21 -14 -27 10 -49 27 -25 19 -51 -16
-51 -51 0 -23 -18 38 -25 163 -17 237 -37 422 -113 134 -54 202 -75 216 -66 8
4 10 33 7 83 -4 67 -3 72 7 47 l13 -30 0 43 c1 25 -5 50 -14 58 -19 20 -19 99
1 107 30 11 16 28 -17 22 -91 -19 -92 -19 -112 11 -10 15 -39 42 -65 58 -25
17 -56 46 -69 65 l-23 34 -87 -1 -87 -1 77 7 c42 3 79 9 82 12 12 12 -5 35
-47 61 -24 15 -91 72 -150 127 -75 70 -120 104 -154 116 -26 10 -84 33 -128
51 -89 38 -103 41 -86 20 9 -11 8 -14 -6 -12 -10 0 -18 -5 -18 -13 0 -8 -6
-16 -14 -19 -13 -4 -13 7 0 57 2 8 -3 16 -12 18 -11 3 -16 -2 -15 -13 2 -29
-49 -39 -108 -21 -28 9 -72 15 -98 13 -32 -2 -48 1 -48 8 0 24 -37 14 -54 -15
-10 -17 -21 -28 -24 -25 -3 4 -16 -3 -28 -15 -13 -12 -30 -19 -38 -16 -15 6
-28 -6 -33 -28 -15 -74 -38 -133 -56 -147 -12 -10 -47 -27 -77 -38 -30 -11
-63 -25 -73 -30 -10 -6 -23 -8 -29 -4 -7 4 -8 3 -4 -4 7 -11 -6 -17 -27 -13
-5 1 -5 -4 -1 -10 3 -6 2 -14 -4 -18 -5 -3 -27 -35 -47 -71 -46 -80 -60 -97
-105 -125 -65 -41 -136 -58 -219 -53 -112 7 -189 54 -224 136 l-14 34 -68 -66
-69 -66 -80 0 c-45 -1 -103 -3 -131 -5 l-50 -5 -222 223 -221 222 -25 85 c-14
47 -40 141 -58 209 -32 122 -33 124 -21 225 53 452 48 426 107 577 38 96 55
154 55 185 0 30 8 57 26 85 14 23 34 75 45 117 11 43 30 88 42 102 l22 25 -22
-19 c-25 -21 -29 -16 -11 17 10 20 10 21 -5 8 -15 -12 -17 -11 -17 3 0 9 -7
16 -16 16 -8 0 -12 5 -9 10 3 6 1 10 -4 10 -6 0 -11 7 -11 16 0 10 -5 14 -16
10 -9 -3 -12 -2 -9 4 6 10 -88 60 -112 60 -7 0 -29 18 -50 39 -21 22 -83 74
-137 115 -82 61 -103 73 -118 65 -14 -8 -46 1 -134 36 -63 26 -120 45 -127 42
-13 -4 -47 34 -47 52 0 6 -8 15 -18 20 -18 10 -18 6 1 -80 l20 -89 32 0 c57 0
85 -60 47 -98 -15 -15 -23 -61 -43 -239 -23 -204 -23 -222 -8 -231 42 -26 16
-112 -34 -112 -12 0 -65 -34 -119 -78 -57 -45 -124 -89 -165 -107 -46 -19 -81
-44 -109 -74 l-40 -45 -27 20 c-35 25 -36 31 -28 101 6 51 15 71 61 133 29 41
53 79 53 85 0 6 42 28 94 49 51 21 93 42 93 46 0 4 -6 13 -14 20 -12 9 -30 4
-89 -29 -59 -32 -82 -40 -105 -35 -21 4 -62 -4 -127 -26 -53 -18 -98 -30 -99
-29 -2 2 -6 30 -9 62 -6 57 -5 58 41 112 36 42 57 58 90 66 53 14 54 29 3 29
-31 0 -47 7 -68 29 -15 15 -65 43 -110 61 -46 18 -83 37 -83 44 0 26 47 66 92
78 51 13 144 1 200 -27 26 -13 27 -12 77 70 28 45 51 86 51 91 0 5 -20 29 -44
54 -32 33 -50 63 -66 113 -12 37 -26 67 -30 67 -5 0 -49 -33 -98 -74 l-90 -74
-117 -8 c-115 -7 -116 -7 -111 -30 8 -29 -6 -66 -43 -112 -28 -35 -29 -39 -19
-87 10 -48 15 -54 112 -132 l102 -82 17 -98 c10 -54 17 -106 17 -116 0 -10
-21 -50 -46 -89 l-45 -71 -46 7 c-26 3 -47 7 -48 9 -1 1 -26 47 -55 102 -78
146 -87 158 -120 152 -38 -8 -70 17 -70 53 0 16 5 32 10 35 13 8 -47 77 -106
122 -34 27 -47 31 -66 24 -58 -22 -111 39 -81 95 24 47 9 108 -34 142 -41 32
-108 101 -189 195 -61 70 -54 66 -308 200 -47 24 -62 38 -74 69 -8 21 -21 38
-28 38 -8 0 -46 19 -85 43 -50 30 -76 53 -90 78 -18 36 -20 36 -63 32 -42 -5
-50 -2 -93 33 -47 38 -57 41 -570 170 l-523 132 0 -2334z m115 2136 c3 -5 1
-10 -4 -10 -6 0 -11 5 -11 10 0 6 2 10 4 10 3 0 8 -4 11 -10z m1235 -740 c0
-5 -5 -10 -11 -10 -5 0 -7 5 -4 10 3 6 8 10 11 10 2 0 4 -4 4 -10z m0 -80 c0
-5 -5 -10 -11 -10 -5 0 -7 5 -4 10 3 6 8 10 11 10 2 0 4 -4 4 -10z m2380 -86
c0 -8 -5 -12 -10 -9 -6 4 -8 11 -5 16 9 14 15 11 15 -7z m-2630 -494 c0 -5 -2
-10 -4 -10 -3 0 -8 5 -11 10 -3 6 -1 10 4 10 6 0 11 -4 11 -10z m1400 -80 c0
-5 -2 -10 -4 -10 -3 0 -8 5 -11 10 -3 6 -1 10 4 10 6 0 11 -4 11 -10z m-160
-490 c0 -5 -4 -10 -10 -10 -5 0 -10 5 -10 10 0 6 5 10 10 10 6 0 10 -4 10 -10z
m80 0 c0 -5 -4 -10 -10 -10 -5 0 -10 5 -10 10 0 6 5 10 10 10 6 0 10 -4 10
-10z m325 0 c3 -5 1 -10 -4 -10 -6 0 -11 5 -11 10 0 6 2 10 4 10 3 0 8 -4 11
-10z m1070 0 c3 -5 1 -10 -4 -10 -6 0 -11 5 -11 10 0 6 2 10 4 10 3 0 8 -4 11
-10z m-1150 -170 c-3 -5 -10 -10 -16 -10 -5 0 -9 5 -9 10 0 6 7 10 16 10 8 0
12 -4 9 -10z m85 -74 c0 -3 -4 -8 -10 -11 -5 -3 -10 -1 -10 4 0 6 5 11 10 11
6 0 10 -2 10 -4z m80 -6 c0 -5 -4 -10 -10 -10 -5 0 -10 5 -10 10 0 6 5 10 10
10 6 0 10 -4 10 -10z m490 0 c0 -5 -2 -10 -4 -10 -3 0 -8 5 -11 10 -3 6 -1 10
4 10 6 0 11 -4 11 -10z m-2300 -330 c0 -5 -2 -10 -4 -10 -3 0 -8 5 -11 10 -3
6 -1 10 4 10 6 0 11 -4 11 -10z m2300 0 c0 -5 -2 -10 -4 -10 -3 0 -8 5 -11 10
-3 6 -1 10 4 10 6 0 11 -4 11 -10z m250 6 c0 -3 -4 -8 -10 -11 -5 -3 -10 -1
-10 4 0 6 5 11 10 11 6 0 10 -2 10 -4z m410 0 c0 -3 -4 -8 -10 -11 -5 -3 -10
-1 -10 4 0 6 5 11 10 11 6 0 10 -2 10 -4z m-2964 -93 c-10 -10 -19 5 -10 18 6
11 8 11 12 0 2 -7 1 -15 -2 -18z m-76 7 c0 -5 -4 -10 -10 -10 -5 0 -10 5 -10
10 0 6 5 10 10 10 6 0 10 -4 10 -10z m0 -80 c0 -5 -4 -10 -10 -10 -5 0 -10 5
-10 10 0 6 5 10 10 10 6 0 10 -4 10 -10z m80 0 c0 -5 -5 -10 -11 -10 -5 0 -7
5 -4 10 3 6 8 10 11 10 2 0 4 -4 4 -10z m1480 -250 c0 -5 -2 -10 -4 -10 -3 0
-8 5 -11 10 -3 6 -1 10 4 10 6 0 11 -4 11 -10z m80 0 c0 -5 -2 -10 -4 -10 -3
0 -8 5 -11 10 -3 6 -1 10 4 10 6 0 11 -4 11 -10z m1320 6 c0 -3 -4 -8 -10 -11
-5 -3 -10 -1 -10 4 0 6 5 11 10 11 6 0 10 -2 10 -4z m-2470 -86 c0 -5 -4 -10
-10 -10 -5 0 -10 5 -10 10 0 6 5 10 10 10 6 0 10 -4 10 -10z m90 0 c0 -5 -7
-10 -15 -10 -8 0 -15 5 -15 10 0 6 7 10 15 10 8 0 15 -4 15 -10z m-90 -80 c0
-5 -4 -10 -10 -10 -5 0 -10 5 -10 10 0 6 5 10 10 10 6 0 10 -4 10 -10z m415 0
c3 -5 -1 -10 -9 -10 -9 0 -16 5 -16 10 0 6 4 10 9 10 6 0 13 -4 16 -10z m1885
0 c0 -5 -5 -10 -11 -10 -5 0 -7 5 -4 10 3 6 8 10 11 10 2 0 4 -4 4 -10z m-80
-80 c0 -5 -5 -10 -11 -10 -5 0 -7 5 -4 10 3 6 8 10 11 10 2 0 4 -4 4 -10z
m3226 -103 c-1 -15 -5 -28 -11 -30 -13 -3 -21 47 -16 98 l4 40 12 -40 c7 -22
12 -52 11 -68z m-4126 -61 c0 -3 -4 -8 -10 -11 -5 -3 -10 -1 -10 4 0 6 5 11
10 11 6 0 10 -2 10 -4z m80 -6 c0 -5 -4 -10 -10 -10 -5 0 -10 5 -10 10 0 6 5
10 10 10 6 0 10 -4 10 -10z m1310 0 c0 -5 -4 -10 -10 -10 -5 0 -10 5 -10 10 0
6 5 10 10 10 6 0 10 -4 10 -10z m-2380 -160 c0 -5 -5 -10 -11 -10 -5 0 -7 5
-4 10 3 6 8 10 11 10 2 0 4 -4 4 -10z m655 0 c3 -5 1 -10 -4 -10 -6 0 -11 5
-11 10 0 6 2 10 4 10 3 0 8 -4 11 -10z m825 0 c0 -5 -5 -10 -11 -10 -5 0 -7 5
-4 10 3 6 8 10 11 10 2 0 4 -4 4 -10z m-1810 -80 c0 -5 -5 -10 -11 -10 -5 0
-7 5 -4 10 3 6 8 10 11 10 2 0 4 -4 4 -10z m1810 0 c0 -5 -4 -10 -10 -10 -5 0
-10 5 -10 10 0 6 5 10 10 10 6 0 10 -4 10 -10z m1805 0 c3 -5 1 -10 -4 -10 -6
0 -11 5 -11 10 0 6 2 10 4 10 3 0 8 -4 11 -10z m-575 -90 c0 -5 -2 -10 -4 -10
-3 0 -8 5 -11 10 -3 6 -1 10 4 10 6 0 11 -4 11 -10z m2490 -53 c36 -11 67 -23
70 -27 10 -11 60 -40 60 -34 0 3 12 -9 28 -27 15 -18 26 -37 25 -41 -2 -4 8
-8 21 -8 14 0 28 -5 32 -12 4 -7 3 -8 -4 -4 -29 18 -8 -4 28 -29 22 -15 37
-31 35 -36 -3 -4 4 -6 15 -4 11 2 18 0 15 -6 -4 -5 2 -9 12 -10 10 0 13 -3 6
-6 -17 -6 7 -32 23 -26 7 2 18 -4 25 -15 8 -10 24 -22 36 -26 11 -4 24 -14 27
-22 10 -27 -108 44 -170 103 -33 30 -75 65 -94 78 -19 13 -51 38 -70 55 -63
57 -112 85 -189 108 -42 12 -58 19 -36 16 22 -3 69 -15 105 -27z m-3310 -27
c0 -5 -4 -10 -10 -10 -5 0 -10 5 -10 10 0 6 5 10 10 10 6 0 10 -4 10 -10z m80
0 c0 -5 -4 -10 -10 -10 -5 0 -10 5 -10 10 0 6 5 10 10 10 6 0 10 -4 10 -10z
m-80 -80 c0 -5 -4 -10 -10 -10 -5 0 -10 5 -10 10 0 6 5 10 10 10 6 0 10 -4 10
-10z m3205 -10 c3 -5 14 -10 24 -10 18 0 101 -59 101 -72 0 -13 -43 -9 -69 6
-14 8 -30 12 -37 9 -6 -2 -25 12 -42 31 -16 19 -34 32 -38 28 -4 -4 -4 -1 0 6
9 14 52 16 61 2z m-5425 -70 c0 -5 -5 -10 -11 -10 -5 0 -7 5 -4 10 3 6 8 10
11 10 2 0 4 -4 4 -10z m5569 -69 c12 -8 13 -14 3 -35 -6 -14 -8 -26 -3 -26 5
0 12 6 14 13 3 6 6 -5 6 -25 l1 -37 -27 15 c-16 7 -33 14 -39 14 -14 0 -54 38
-54 51 0 6 9 13 20 16 11 3 20 9 20 14 0 12 41 11 59 0z m-4419 -21 c0 -5 -2
-10 -4 -10 -3 0 -8 5 -11 10 -3 6 -1 10 4 10 6 0 11 -4 11 -10z m4200 -40 c0
-5 -2 -10 -4 -10 -3 0 -8 5 -11 10 -3 6 -1 10 4 10 6 0 11 -4 11 -10z m-4200
-40 c0 -5 -2 -10 -4 -10 -3 0 -8 5 -11 10 -3 6 -1 10 4 10 6 0 11 -4 11 -10z
m660 0 c0 -5 -4 -10 -10 -10 -5 0 -10 5 -10 10 0 6 5 10 10 10 6 0 10 -4 10
-10z m-330 -80 c0 -5 -2 -10 -4 -10 -3 0 -8 5 -11 10 -3 6 -1 10 4 10 6 0 11
-4 11 -10z m820 0 c0 -5 -4 -10 -10 -10 -5 0 -10 5 -10 10 0 6 5 10 10 10 6 0
10 -4 10 -10z m4044 -20 c17 0 69 -11 116 -24 70 -19 86 -27 88 -44 4 -23 -12
-30 -24 -11 -3 6 -15 9 -25 6 -11 -3 -17 -2 -14 3 5 9 -18 20 -41 20 -8 0 -14
-4 -14 -10 0 -5 5 -10 11 -10 6 0 17 -7 25 -15 9 -8 12 -15 8 -15 -4 0 6 -11
22 -25 16 -14 25 -25 19 -25 -5 -1 6 -8 25 -17 19 -8 30 -17 23 -20 -23 -8
-185 77 -254 132 -96 80 -101 87 -43 69 26 -8 61 -14 78 -14z m-4864 -60 c0
-5 -4 -10 -10 -10 -5 0 -10 5 -10 10 0 6 5 10 10 10 6 0 10 -4 10 -10z m-660
-80 c0 -5 -5 -10 -11 -10 -5 0 -7 5 -4 10 3 6 8 10 11 10 2 0 4 -4 4 -10z
m660 0 c0 -5 -5 -10 -11 -10 -5 0 -7 5 -4 10 3 6 8 10 11 10 2 0 4 -4 4 -10z
m1395 0 c3 -5 1 -10 -4 -10 -6 0 -11 5 -11 10 0 6 2 10 4 10 3 0 8 -4 11 -10z
m-3121 -91 c-3 -5 -10 -7 -15 -3 -5 3 -7 10 -3 15 3 5 10 7 15 3 5 -3 7 -10 3
-15z"/>
<path d="M1307 4654 c-3 -5 1 -15 9 -22 16 -14 18 -5 5 17 -5 7 -11 9 -14 5z"/>
<path d="M1359 4621 c-29 -30 -32 -46 -3 -19 15 15 26 29 23 31 -2 3 -11 -3
-20 -12z"/>
<path d="M1452 4633 c-12 -2 -20 -8 -17 -12 6 -11 55 -1 55 10 0 5 -3 8 -7 8
-5 -1 -18 -4 -31 -6z"/>
<path d="M1523 4625 c0 -8 7 -15 15 -15 7 0 12 5 10 12 -6 18 -25 21 -25 3z"/>
<path d="M1565 4611 c5 -18 4 -22 -6 -16 -8 5 -6 -1 4 -12 9 -11 14 -24 10
-28 -5 -5 0 -3 10 4 18 14 24 26 8 16 -5 -3 -12 -1 -16 5 -8 13 18 13 32 -1 7
-7 13 -7 17 -1 3 5 -1 15 -9 22 -8 7 -15 9 -15 5 0 -5 -10 0 -21 11 -22 19
-22 19 -14 -5z"/>
<path d="M1210 4606 c0 -2 7 -7 16 -10 8 -3 12 -2 9 4 -6 10 -25 14 -25 6z"/>
<path d="M1888 4585 c-3 -3 -32 -12 -64 -20 -70 -18 -109 -34 -101 -41 5 -5
22 -1 97 24 8 2 25 6 37 8 31 4 58 20 46 27 -6 4 -12 4 -15 2z"/>
<path d="M1354 4568 c-4 -7 -4 -10 1 -6 4 4 15 2 24 -5 14 -11 14 -10 2 6 -16
20 -18 21 -27 5z"/>
<path d="M1130 4560 c8 -5 20 -10 25 -10 6 0 3 5 -5 10 -8 5 -19 10 -25 10 -5
0 -3 -5 5 -10z"/>
<path d="M1625 4560 c-4 -6 -3 -10 2 -9 20 3 23 -2 12 -22 -9 -17 -8 -20 2
-14 7 5 17 1 26 -10 7 -11 13 -14 13 -8 0 6 -7 16 -15 23 -8 6 -14 15 -13 18
3 30 -14 43 -27 22z"/>
<path d="M1327 4527 c-3 -8 1 -14 8 -14 7 0 11 6 8 14 -3 7 -6 13 -8 13 -2 0
-5 -6 -8 -13z"/>
<path d="M1315 4487 c-18 -42 26 -177 58 -177 5 0 15 -7 24 -15 8 -8 19 -12
24 -9 6 3 2 12 -8 21 -17 13 -16 13 4 3 13 -6 20 -16 17 -24 -3 -8 4 -16 18
-20 37 -9 78 -7 78 5 0 6 7 8 18 4 13 -5 14 -3 5 6 -11 11 -29 15 -84 18 -14
0 -34 9 -45 19 -11 10 -26 16 -34 14 -13 -5 -13 -3 0 13 9 11 10 16 3 11 -9
-5 -13 0 -14 16 0 22 -1 22 -9 3 -5 -11 -9 -14 -9 -6 -1 7 -7 11 -16 7 -20 -7
-19 3 3 27 9 11 12 17 5 13 -12 -7 -18 7 -26 64 -3 22 -5 23 -12 7z m172 -203
c-3 -3 -12 -4 -19 -1 -8 3 -5 6 6 6 11 1 17 -2 13 -5z"/>
<path d="M1341 4474 c0 -11 3 -14 6 -6 3 7 2 16 -1 19 -3 4 -6 -2 -5 -13z"/>
<path d="M1736 4471 c-2 -3 33 -7 79 -9 46 -2 86 1 89 6 3 5 -33 9 -80 9 -46
0 -86 -3 -88 -6z"/>
<path d="M2905 4433 c-33 -18 -56 -44 -49 -55 3 -5 -2 -8 -10 -8 -18 0 -20 -8
-7 -29 7 -11 11 -8 17 10 4 13 7 27 6 31 -1 3 12 12 28 20 17 7 30 16 30 19 0
8 100 4 128 -5 16 -5 21 -13 17 -23 -4 -12 -2 -13 7 -5 9 7 17 6 26 -4 10 -11
10 -14 0 -14 -8 -1 -5 -7 6 -15 11 -8 14 -15 7 -15 -7 0 -9 -5 -6 -10 4 -6 10
-8 15 -5 4 3 11 -1 14 -7 3 -7 3 -2 0 12 -4 14 -9 27 -13 30 -3 3 -7 12 -9 20
-3 15 -31 37 -46 38 -5 0 -12 6 -17 13 -12 19 -109 21 -144 2z"/>
<path d="M1736 4398 c3 -5 10 -6 15 -3 13 9 11 12 -6 12 -8 0 -12 -4 -9 -9z"/>
<path d="M1795 4389 c11 -7 27 -13 35 -14 8 -1 27 -8 43 -15 19 -9 31 -10 38
-3 7 7 -1 13 -28 18 -21 5 -43 9 -49 11 -6 1 -22 5 -35 8 -23 7 -23 6 -4 -5z"/>
<path d="M2805 4380 c-3 -5 -1 -10 4 -10 6 0 11 5 11 10 0 6 -2 10 -4 10 -3 0
-8 -4 -11 -10z"/>
<path d="M1730 4366 c0 -2 7 -6 15 -10 8 -3 15 -1 15 4 0 6 -7 10 -15 10 -8 0
-15 -2 -15 -4z"/>
<path d="M2823 4288 c1 -31 4 -43 9 -33 5 8 5 29 0 47 -9 32 -10 31 -9 -14z"/>
<path d="M1634 4288 l-19 -23 23 19 c21 18 27 26 19 26 -2 0 -12 -10 -23 -22z"/>
<path d="M3114 4304 c3 -6 1 -27 -5 -48 -12 -44 -3 -65 17 -39 17 23 18 47 2
37 -10 -6 -10 -5 -1 7 10 13 10 19 -3 35 -8 10 -13 14 -10 8z"/>
<path d="M1807 4294 c-9 -9 42 -44 63 -44 11 1 8 6 -9 20 -12 11 -27 18 -31
15 -5 -3 -10 0 -12 6 -2 5 -7 7 -11 3z"/>
<path d="M1703 4265 c0 -8 4 -12 9 -9 4 3 8 -1 8 -9 0 -15 76 -87 92 -87 5 0
-16 27 -48 60 -32 33 -58 60 -59 60 -1 0 -2 -7 -2 -15z"/>
<path d="M1625 4242 c6 -4 23 -32 38 -62 33 -65 55 -96 63 -88 8 8 -24 68 -37
68 -6 0 -8 4 -4 10 3 5 -3 18 -13 28 -10 10 -21 26 -25 35 -3 9 -12 17 -19 17
-8 0 -9 -3 -3 -8z"/>
<path d="M2140 4234 c-51 -14 -124 -53 -115 -63 2 -2 -7 -12 -21 -23 -40 -32
-59 -95 -55 -184 1 -16 7 -21 24 -19 31 3 31 3 18 19 -9 11 -9 16 0 21 8 6 7
10 -2 16 -10 6 -11 9 -1 9 6 0 12 6 12 13 0 6 11 34 24 62 14 27 22 53 20 57
-3 4 3 5 12 1 12 -4 15 -3 10 5 -4 8 -2 10 7 6 8 -3 21 1 28 9 31 30 137 36
197 11 39 -16 56 -18 48 -6 -3 5 1 9 9 9 10 0 12 -4 5 -12 -14 -16 -1 -48 16
-41 8 3 13 2 12 -2 -1 -4 4 -24 11 -44 9 -27 18 -38 32 -38 28 0 33 22 15 64
-11 27 -19 34 -33 30 -15 -5 -16 -4 -3 5 13 10 9 17 -25 46 -22 19 -46 33 -52
30 -7 -2 -13 0 -13 5 0 11 -65 30 -100 29 -14 0 -50 -7 -80 -15z m120 -9 c0
-8 -7 -15 -15 -15 -8 0 -15 7 -15 15 0 8 7 15 15 15 8 0 15 -7 15 -15z m-85
-5 c-3 -5 -10 -10 -16 -10 -5 0 -9 5 -9 10 0 6 7 10 16 10 8 0 12 -4 9 -10z"/>
<path d="M2840 4210 c6 -11 12 -20 14 -20 2 0 2 9 -1 20 -3 11 -9 20 -15 20
-5 0 -4 -9 2 -20z"/>
<path d="M3065 4200 c-3 -5 -1 -10 4 -10 6 0 11 5 11 10 0 6 -2 10 -4 10 -3 0
-8 -4 -11 -10z"/>
<path d="M2866 4183 c-6 -14 -5 -15 5 -6 7 7 10 15 7 18 -3 3 -9 -2 -12 -12z"/>
<path d="M3090 4192 c0 -5 -15 -14 -32 -20 -19 -5 -25 -10 -15 -11 11 -1 15
-6 11 -13 -5 -7 -3 -8 5 -4 7 5 10 11 6 14 -3 3 7 11 22 17 18 7 23 14 15 19
-7 4 -12 3 -12 -2z"/>
<path d="M2930 4171 c0 -6 -7 -11 -15 -11 -8 0 -15 -4 -15 -9 0 -12 25 -21 49
-16 11 2 23 0 26 -4 6 -11 55 -1 55 10 0 9 -21 13 -54 9 -13 -1 -16 2 -10 12
4 7 4 10 -1 6 -4 -4 -14 -3 -22 3 -9 9 -13 8 -13 0z m24 -19 c2 -4 -4 -9 -15
-9 -11 -1 -17 2 -14 8 7 11 22 12 29 1z"/>
<path d="M2150 4162 c0 -5 7 -9 15 -9 8 0 15 4 15 9 0 4 -7 8 -15 8 -8 0 -15
-4 -15 -8z"/>
<path d="M2228 4163 c7 -3 16 -2 19 1 4 3 -2 6 -13 5 -11 0 -14 -3 -6 -6z"/>
<path d="M2270 4160 c8 -5 20 -10 25 -10 6 0 3 5 -5 10 -8 5 -19 10 -25 10 -5
0 -3 -5 5 -10z"/>
<path d="M2114 4145 c-18 -14 -18 -14 4 -8 12 3 22 9 22 14 0 12 -3 11 -26 -6z"/>
<path d="M2309 4121 c14 -25 40 -45 48 -37 11 10 -10 38 -35 47 -20 7 -21 6
-13 -10z"/>
<path d="M3552 4118 c-32 -32 4 -87 48 -73 25 8 37 50 20 70 -15 18 -51 20
-68 3z"/>
<path d="M3131 4110 c-17 -10 -7 -40 13 -40 7 0 16 6 19 14 8 19 -15 37 -32
26z"/>
<path d="M2054 4087 c-9 -24 6 -44 18 -22 7 11 6 21 -1 28 -7 7 -12 6 -17 -6z"/>
<path d="M2106 4063 c-6 -14 -5 -15 5 -6 7 7 10 15 7 18 -3 3 -9 -2 -12 -12z"/>
<path d="M2310 4076 c0 -2 8 -10 18 -17 15 -13 16 -12 3 4 -13 16 -21 21 -21
13z"/>
<path d="M2026 4044 c-4 -14 -5 -29 -2 -31 3 -3 8 7 12 21 3 15 4 29 1 32 -2
3 -8 -7 -11 -22z"/>
<path d="M2027 3983 c-12 -11 -7 -47 8 -67 13 -17 15 -18 15 -3 0 9 -4 17 -9
17 -5 0 -8 14 -6 30 4 31 3 35 -8 23z"/>
<path d="M2993 3950 c-9 -24 -7 -43 10 -101 21 -68 26 -75 114 -156 58 -53
106 -88 128 -94 39 -11 44 -23 17 -38 -17 -9 -20 -29 -25 -183 l-6 -173 26
-27 26 -27 -24 -10 c-13 -5 -58 -24 -99 -43 -69 -32 -79 -41 -133 -116 -64
-89 -83 -158 -57 -207 18 -34 32 -31 73 14 21 23 61 50 99 67 56 24 138 80
233 158 24 20 28 27 18 37 -28 29 -5 99 32 99 14 0 17 17 41 238 8 84 13 160
10 168 -3 7 -1 14 4 14 6 0 10 5 10 10 0 6 -7 10 -15 10 -8 0 -24 9 -36 21
-17 17 -20 29 -15 59 7 46 -13 142 -27 133 -6 -4 -8 0 -4 10 4 10 4 31 0 48
-8 42 -42 57 -89 40 -31 -11 -49 -10 -147 14 -62 15 -121 36 -132 46 -20 18
-21 18 -32 -11z m248 -82 c1 -7 1 -17 0 -22 -3 -14 120 -200 147 -222 25 -20
25 -21 9 -65 -16 -45 -44 -339 -40 -416 2 -24 -2 -43 -7 -43 -6 0 -54 -32
-108 -70 -128 -93 -127 -92 -135 -113 -9 -23 -50 -19 -55 6 -4 17 2 21 51 31
15 4 31 14 35 24 4 9 13 17 20 17 19 0 162 109 158 120 -2 6 2 17 9 25 18 22
51 416 36 434 -6 7 -10 24 -9 37 2 23 -116 219 -130 217 -23 -2 -32 5 -32 27
0 20 5 25 25 25 14 0 26 -6 26 -12z"/>
<path d="M3200 3855 c0 -8 7 -15 15 -15 8 0 15 7 15 15 0 8 -7 15 -15 15 -8 0
-15 -7 -15 -15z"/>
<path d="M3364 3609 c-10 -17 13 -36 27 -22 12 12 4 33 -11 33 -5 0 -12 -5
-16 -11z"/>
<path d="M3330 3120 c0 -5 5 -10 10 -10 6 0 10 5 10 10 0 6 -4 10 -10 10 -5 0
-10 -4 -10 -10z"/>
<path d="M3060 2925 c0 -8 9 -15 20 -15 11 0 20 7 20 15 0 8 -9 15 -20 15 -11
0 -20 -7 -20 -15z"/>
<path d="M2342 3933 c5 -7 14 -10 19 -7 16 10 9 23 -10 21 -15 -1 -17 -4 -9
-14z"/>
<path d="M2372 3896 c-7 -18 -21 -41 -31 -51 -11 -9 -17 -24 -14 -33 3 -12 2
-13 -4 -5 -7 10 -18 9 -51 -4 -36 -14 -50 -14 -90 -4 -26 6 -52 12 -59 13 -7
1 -10 5 -7 10 3 4 0 8 -6 8 -5 0 -18 13 -28 30 l-19 30 -17 -37 c-17 -36 -17
-39 15 -160 24 -91 36 -122 46 -119 41 16 95 -52 74 -92 -9 -17 -5 -24 27 -48
20 -16 58 -50 83 -76 25 -27 55 -48 66 -48 26 0 40 -17 45 -55 2 -17 13 -44
24 -60 12 -17 45 -75 74 -130 29 -55 54 -101 54 -101 1 -1 18 -4 38 -8 37 -7
37 -7 83 62 l46 70 -19 106 c-11 59 -21 108 -23 110 -2 2 -44 36 -94 76 -99
80 -112 98 -121 164 -6 41 -3 49 24 80 42 48 45 64 27 147 -8 41 -15 77 -15
81 0 8 -100 78 -110 78 -3 0 -11 -15 -18 -34z m-76 -150 c18 -14 18 -16 2 -48
-16 -30 -17 -38 -4 -86 8 -29 20 -60 26 -68 7 -8 9 -14 5 -14 -7 0 3 -13 129
-163 49 -58 93 -104 97 -101 5 3 18 0 29 -6 21 -11 27 -49 11 -66 -12 -12 7
-114 26 -136 16 -18 10 -38 -13 -38 -13 0 -19 13 -15 35 5 25 -24 135 -35 135
-16 0 -33 30 -27 48 3 7 -17 39 -44 71 -125 150 -152 179 -159 173 -4 -4 -4
-1 0 6 5 8 -2 16 -20 22 -20 8 -25 15 -21 31 9 34 -14 129 -33 139 -24 13 -31
47 -13 65 18 19 34 19 59 1z"/>
<path d="M2244 3725 c-4 -9 -2 -21 4 -27 15 -15 44 -1 40 19 -4 23 -36 29 -44
8z"/>
<path d="M2295 3541 c-3 -5 -1 -12 5 -16 5 -3 10 1 10 9 0 18 -6 21 -15 7z"/>
<path d="M2553 3253 c-7 -3 -13 -16 -13 -30 0 -20 4 -24 23 -21 13 2 23 11 25
24 3 22 -13 34 -35 27z"/>
<path d="M2600 3044 c0 -8 5 -12 10 -9 6 4 8 11 5 16 -9 14 -15 11 -15 -7z"/>
<path d="M2320 3910 c8 -5 20 -10 25 -10 6 0 3 5 -5 10 -8 5 -19 10 -25 10 -5
0 -3 -5 5 -10z"/>
<path d="M2106 3865 c23 -30 72 -55 109 -55 25 0 85 22 81 29 -3 4 6 13 19 19
14 7 25 16 25 22 0 6 -4 9 -9 6 -5 -4 -12 0 -14 6 -3 7 -6 3 -6 -9 -1 -26 -10
-29 -31 -10 -12 10 -12 9 -2 -4 13 -18 -1 -39 -27 -39 -11 0 -12 3 -4 8 6 4
-6 7 -27 7 -24 0 -34 -3 -27 -8 8 -6 5 -7 -6 -3 -10 3 -28 6 -40 7 -20 1 -20
2 3 9 24 8 24 8 3 9 -13 1 -32 10 -43 21 -31 31 -34 23 -4 -15z m131 -41 c-3
-3 -12 -4 -19 -1 -8 3 -5 6 6 6 11 1 17 -2 13 -5z"/>
<path d="M3744 3865 c-4 -9 -2 -21 4 -27 15 -15 44 -1 40 19 -4 23 -36 29 -44
8z"/>
<path d="M4027 3842 c-13 -15 -14 -22 -4 -42 16 -31 54 -33 73 -4 12 17 11 23
-2 42 -18 27 -45 28 -67 4z"/>
<path d="M3446 3679 c-23 -34 -3 -69 41 -69 33 0 48 35 28 66 -19 30 -49 31
-69 3z"/>
<path d="M3068 3588 c-27 -44 -48 -90 -48 -104 0 -30 -15 -31 -35 -1 -22 34
-147 62 -208 45 -43 -11 -87 -53 -71 -67 5 -4 43 -20 84 -36 41 -16 83 -39 93
-52 16 -20 27 -23 84 -23 71 0 107 18 96 48 -5 11 -2 14 9 9 30 -11 65 42 82
128 l16 79 -27 27 -28 27 -47 -80z m82 -14 c0 -7 -8 -18 -19 -23 -23 -13 -101
-131 -101 -154 0 -21 -28 -22 -49 -3 -28 25 -159 75 -180 69 -17 -4 -21 -1
-21 21 0 28 23 36 37 13 13 -20 162 -79 184 -72 19 6 104 120 104 140 1 32 45
41 45 9z"/>
<path d="M3120 3570 c0 -5 5 -10 10 -10 6 0 10 5 10 10 0 6 -4 10 -10 10 -5 0
-10 -4 -10 -10z"/>
<path d="M2790 3490 c0 -5 5 -10 11 -10 5 0 7 5 4 10 -3 6 -8 10 -11 10 -2 0
-4 -4 -4 -10z"/>
<path d="M3000 3400 c0 -5 5 -10 10 -10 6 0 10 5 10 10 0 6 -4 10 -10 10 -5 0
-10 -4 -10 -10z"/>
<path d="M4306 3662 c-3 -5 1 -9 9 -9 8 0 12 4 9 9 -3 4 -7 8 -9 8 -2 0 -6 -4
-9 -8z"/>
<path d="M4260 3656 c0 -3 9 -10 20 -16 11 -6 20 -8 20 -6 0 3 -9 10 -20 16
-11 6 -20 8 -20 6z"/>
<path d="M3161 3487 c-26 -127 -27 -135 -16 -161 7 -17 4 -18 -31 -12 -25 4
-68 -1 -118 -13 -68 -16 -84 -25 -127 -67 -45 -44 -49 -52 -49 -96 0 -26 4
-50 10 -53 5 -3 47 8 94 24 55 20 96 28 118 25 25 -4 49 4 103 34 l70 38 7
170 c4 93 5 175 3 182 -2 6 3 12 12 12 23 0 4 16 -27 23 -26 6 -26 5 -49 -106z
m23 -213 c9 -23 -14 -46 -38 -40 -29 7 -151 -31 -172 -55 -21 -23 -37 -24 -54
-4 -19 23 6 48 40 40 30 -7 161 39 173 61 11 19 43 18 51 -2z"/>
<path d="M3140 3265 c0 -8 7 -15 15 -15 8 0 15 7 15 15 0 8 -7 15 -15 15 -8 0
-15 -7 -15 -15z"/>
<path d="M2936 3203 c-12 -12 -6 -33 9 -33 8 0 15 6 15 14 0 17 -14 28 -24 19z"/>
<path d="M4642 3564 c-12 -8 -22 -13 -22 -9 0 3 -13 -1 -29 -9 -16 -9 -30 -13
-33 -11 -7 7 -2 -47 6 -72 4 -13 11 -23 15 -23 4 0 8 -7 8 -15 0 -8 -5 -15
-11 -15 -6 0 -4 -5 4 -10 10 -6 11 -10 3 -10 -7 0 -13 -5 -13 -11 0 -5 5 -7
10 -4 6 3 10 2 10 -4 0 -5 -4 -12 -8 -15 -5 -3 -9 -49 -10 -103 -2 -69 1 -93
8 -83 8 12 10 10 10 -10 0 -14 1 -41 4 -60 2 -21 -2 -41 -11 -51 -11 -13 -11
-17 -1 -22 9 -3 14 -28 16 -74 4 -90 7 -109 18 -105 5 1 8 54 8 117 -1 67 2
115 8 115 5 0 7 -3 4 -8 -2 -4 7 -12 20 -19 13 -6 24 -7 24 -2 0 5 -4 9 -10 9
-5 0 -7 7 -3 16 3 9 -6 27 -26 46 -33 32 -34 38 -31 158 2 73 3 76 42 116 39
41 40 43 34 98 -5 52 -4 56 15 56 17 0 20 -4 15 -22 -3 -13 -6 -42 -6 -65 0
-35 -7 -50 -35 -82 -33 -36 -49 -81 -23 -65 7 5 8 3 3 -6 -10 -16 -18 -138
-11 -157 3 -7 12 -10 21 -7 22 9 18 101 -4 114 -11 6 -12 9 -3 10 7 0 12 7 10
16 -2 9 5 21 14 28 14 9 22 6 40 -12 18 -18 19 -21 6 -16 -11 3 -18 1 -18 -5
0 -15 25 -14 38 2 13 17 22 143 10 155 -14 14 0 34 19 30 25 -5 19 -164 -7
-200 -14 -19 -20 -43 -20 -84 0 -40 -5 -63 -17 -76 -17 -19 -23 -36 -23 -73 0
-11 -1 -29 -1 -40 -1 -11 -2 -53 -3 -92 l-1 -73 71 -71 c63 -63 75 -71 99 -65
l27 7 -61 62 -61 62 0 113 0 113 31 26 31 26 -4 144 c-1 79 0 143 5 143 4 0
10 0 15 0 4 0 5 -52 3 -116 -2 -84 0 -115 8 -110 6 4 11 2 11 -3 0 -6 -4 -11
-10 -11 -5 0 -10 -7 -10 -16 0 -8 5 -12 11 -8 20 12 -8 -29 -40 -60 -31 -29
-31 -31 -31 -127 0 -55 4 -101 10 -104 6 -3 10 -1 10 4 0 6 6 10 13 9 9 -2 12
19 14 77 1 80 1 80 27 78 23 -2 26 2 27 30 1 18 1 35 1 38 -1 3 -1 26 -1 50
-1 125 -3 217 -5 247 -2 18 1 35 5 38 13 8 -1 34 -53 107 l-50 67 -67 0 c-44
0 -74 -5 -89 -16z m75 0 c-3 -3 -12 -4 -19 -1 -8 3 -5 6 6 6 11 1 17 -2 13 -5z
m-140 -56 c-3 -8 -6 -5 -6 6 -1 11 2 17 5 13 3 -3 4 -12 1 -19z m57 -29 c-3
-5 -10 -7 -15 -3 -5 3 -7 10 -3 15 3 5 10 7 15 3 5 -3 7 -10 3 -15z m6 -79 c0
-5 -4 -10 -9 -10 -6 0 -13 5 -16 10 -3 6 1 10 9 10 9 0 16 -4 16 -10z m-40
-54 c0 -3 -4 -8 -10 -11 -5 -3 -10 -1 -10 4 0 6 5 11 10 11 6 0 10 -2 10 -4z
m17 -408 c-3 -8 -6 -5 -6 6 -1 11 2 17 5 13 3 -3 4 -12 1 -19z"/>
<path d="M2077 3542 c-22 -24 -21 -55 1 -75 37 -34 92 -11 92 38 0 50 -60 73
-93 37z m61 -35 c4 -20 -25 -34 -40 -19 -15 15 -1 44 19 40 10 -2 19 -11 21
-21z"/>
<path d="M4186 3541 c-19 -7 -19 -8 0 -13 13 -3 21 0 21 8 0 8 -1 14 -1 13 -1
0 -10 -4 -20 -8z"/>
<path d="M4150 3493 c8 -3 24 -10 35 -15 20 -9 20 -9 1 6 -11 9 -27 16 -35 15
-14 0 -14 -1 -1 -6z"/>
<path d="M3086 3380 c-20 -22 -36 -41 -36 -43 0 -1 15 -2 34 -2 32 0 34 2 39
40 3 22 4 41 3 43 -2 1 -20 -16 -40 -38z"/>
<path d="M5551 3353 c13 -35 3 -92 -17 -100 -13 -5 -13 -7 -2 -14 10 -7 10 -9
-3 -9 -9 0 -28 -9 -43 -21 -28 -22 -35 -66 -14 -87 9 -9 9 -15 0 -24 -17 -17
-15 -36 9 -61 15 -17 19 -18 14 -4 -6 14 -3 16 11 11 11 -4 16 -4 12 1 -8 9
14 56 35 74 13 10 50 19 93 23 8 1 9 11 3 31 -5 16 -6 34 -3 38 3 5 1 9 -3 9
-5 0 -9 10 -10 22 -3 31 -24 78 -35 78 -6 0 -8 9 -5 20 3 10 2 19 -2 18 -3 -1
-16 3 -28 10 -22 12 -22 12 -12 -15z m69 -203 c0 -5 -2 -10 -4 -10 -3 0 -8 5
-11 10 -3 6 -1 10 4 10 6 0 11 -4 11 -10z"/>
<path d="M4996 3328 c-19 -96 -21 -116 -12 -148 6 -19 15 -38 21 -42 5 -5 1
-8 -10 -8 -15 0 -17 -2 -6 -9 10 -7 11 -13 1 -32 -9 -20 -9 -21 2 -8 21 25 59
43 67 30 4 -5 16 -9 28 -8 16 1 19 5 14 17 -4 8 -6 26 -4 40 15 140 16 134 -7
158 -11 12 -31 22 -43 22 -13 0 -28 5 -34 11 -7 7 -12 1 -17 -23z m94 -208 c0
-5 -4 -10 -10 -10 -5 0 -10 5 -10 10 0 6 5 10 10 10 6 0 10 -4 10 -10z"/>
<path d="M4340 3295 c-10 -12 -7 -15 14 -21 14 -3 26 -10 26 -15 0 -5 -8 -6
-17 -2 -15 5 -15 3 2 -14 11 -11 25 -18 30 -15 6 3 7 2 3 -3 -10 -10 10 -35
27 -35 17 0 24 44 10 63 -11 15 -13 15 -28 -1 -11 -10 -17 -12 -17 -4 0 7 5
12 10 12 6 0 10 5 10 11 0 5 -4 8 -9 4 -5 -3 -12 -1 -16 4 -3 6 -12 8 -20 4
-11 -4 -13 -1 -9 11 8 20 0 21 -16 1z"/>
<path d="M2325 3283 c-31 -31 -4 -70 40 -59 18 5 25 13 25 31 0 37 -39 55 -65
28z m44 -17 c9 -10 8 -16 -4 -26 -19 -16 -41 1 -32 24 8 20 21 20 36 2z"/>
<path d="M2345 3260 c-3 -5 -1 -10 4 -10 6 0 11 5 11 10 0 6 -2 10 -4 10 -3 0
-8 -4 -11 -10z"/>
<path d="M4300 3290 c0 -5 5 -10 11 -10 5 0 7 5 4 10 -3 6 -8 10 -11 10 -2 0
-4 -4 -4 -10z"/>
<path d="M4260 3269 c-10 -17 -10 -20 2 -13 10 6 11 5 2 -7 -7 -8 -15 -28 -18
-44 -4 -17 -20 -51 -36 -75 -21 -31 -30 -57 -30 -86 0 -26 -20 -91 -55 -180
-60 -149 -64 -173 -104 -523 l-19 -164 24 -81 c14 -45 27 -90 29 -101 2 -11
16 -64 31 -117 l27 -97 217 -215 216 -216 120 0 120 0 62 64 c62 63 63 66 60
112 -2 26 -7 49 -13 50 -5 2 -26 -17 -45 -41 -37 -48 -60 -57 -60 -25 0 11 6
20 13 20 8 0 23 10 34 23 18 19 21 37 22 149 2 81 -2 128 -9 133 -5 3 -8 10
-5 15 3 4 -4 19 -14 31 -23 28 -20 46 -27 -156 -5 -139 -6 -140 -36 -171 -26
-28 -30 -38 -26 -80 2 -41 0 -49 -16 -52 -15 -3 -18 0 -13 19 4 13 7 41 7 61
0 29 7 44 29 63 26 23 28 32 28 88 0 187 6 277 17 277 7 0 25 13 40 28 26 29
27 30 26 158 -2 178 -1 196 8 190 23 -14 37 17 34 77 -2 24 -6 27 -35 27 -22
0 -44 -10 -70 -32 -43 -38 -46 -53 -15 -86 21 -22 23 -32 22 -134 l-1 -110
-57 -57 c-31 -31 -56 -59 -56 -62 0 -3 11 -19 25 -35 20 -23 25 -40 25 -84 0
-30 4 -72 9 -92 6 -23 5 -36 0 -32 -12 7 0 -46 13 -63 7 -9 2 -10 -19 -4 l-28
7 4 108 c2 77 0 106 -8 102 -6 -4 -11 -2 -11 3 0 6 5 11 12 11 6 0 3 6 -7 14
-11 8 -23 12 -27 9 -5 -2 -7 -95 -6 -206 2 -172 0 -202 -12 -202 -12 0 -14 15
-12 85 3 71 2 83 -10 72 -9 -9 -13 -44 -14 -120 0 -86 -3 -107 -15 -107 -7 0
-14 6 -13 13 1 6 2 57 3 111 1 90 3 102 26 129 24 29 25 36 25 160 0 124 1
132 22 146 12 9 18 16 13 17 -6 0 1 5 15 10 20 8 22 12 10 20 -13 8 -13 9 1 7
9 -2 29 10 43 25 24 26 26 34 26 126 0 85 -3 100 -20 116 -20 18 -20 17 -20
-91 l0 -110 -35 -34 c-18 -18 -33 -38 -32 -44 1 -6 -8 -12 -20 -14 -18 -3 -23
1 -23 17 0 12 5 21 12 21 21 0 67 51 61 68 -4 10 -2 13 5 8 8 -5 12 1 12 18 0
14 -4 26 -8 26 -12 0 -93 -85 -87 -92 3 -3 -6 -13 -20 -22 -21 -14 -25 -24
-25 -69 0 -29 6 -61 14 -72 8 -11 15 -47 17 -80 3 -50 1 -60 -13 -63 -15 -3
-16 3 -11 47 4 38 2 57 -11 76 -11 17 -18 52 -20 103 -2 51 -7 77 -14 76 -29
-2 -33 -5 -27 -14 3 -5 11 -8 18 -6 7 1 10 1 7 -1 -3 -2 -5 -36 -5 -77 0 -64
3 -78 23 -99 20 -21 21 -25 7 -31 -9 -3 -20 -6 -24 -6 -17 0 -31 55 -31 119 0
45 -5 72 -13 80 -23 18 -27 2 -27 -99 0 -95 0 -96 34 -132 l34 -36 2 -114 c3
-137 3 -135 -12 -120 -8 8 -11 46 -9 115 l2 104 -35 37 -36 36 0 98 c0 124 -6
134 -54 92 -35 -32 -36 -33 -36 -108 0 -73 1 -78 34 -112 32 -34 34 -39 39
-127 4 -75 2 -93 -9 -93 -11 0 -14 20 -14 88 0 84 -1 90 -28 115 l-29 28 -28
-22 c-25 -21 -27 -26 -22 -71 5 -43 4 -49 -11 -46 -9 2 -16 7 -14 11 1 4 2 25
2 47 0 30 7 48 31 74 27 31 30 40 27 92 l-3 56 -23 -18 c-20 -16 -23 -29 -23
-77 0 -49 -3 -58 -17 -55 -9 3 -15 11 -13 19 2 8 6 35 10 62 5 42 14 56 75
116 37 38 65 74 62 80 -16 25 -51 8 -118 -56 l-70 -68 4 -60 c2 -48 0 -60 -12
-60 -12 0 -14 12 -12 58 l4 57 -30 0 c-17 0 -32 -6 -36 -15 -7 -19 -36 -20
-36 0 0 19 29 34 73 37 31 2 47 13 102 70 l65 68 138 0 139 0 51 54 52 54 0
74 0 74 53 52 c32 31 61 52 73 51 46 -5 53 0 45 29 -6 23 -13 27 -49 30 -41 3
-44 1 -157 -110 -104 -102 -115 -116 -115 -148 0 -27 -8 -43 -28 -63 -25 -24
-36 -27 -97 -27 -66 0 -71 -2 -106 -36 -29 -29 -41 -34 -55 -26 -33 18 -114
-21 -114 -55 0 -7 -9 -13 -20 -13 -30 0 -25 16 18 55 32 30 44 34 88 35 44 0
54 4 83 34 30 31 36 33 78 28 36 -4 45 -2 41 9 -3 10 -27 15 -88 17 -73 2 -85
0 -102 -18 -13 -13 -31 -20 -58 -20 -33 0 -44 -6 -74 -42 -27 -32 -39 -39 -48
-30 -19 19 68 91 111 92 21 0 44 8 58 22 19 18 38 22 109 26 81 4 86 3 113
-22 25 -24 28 -25 49 -10 16 11 22 25 22 52 0 28 8 44 37 74 20 21 35 39 32
42 -2 2 -23 6 -46 9 -39 4 -44 1 -94 -49 l-53 -54 -114 0 c-116 0 -162 -13
-162 -46 0 -8 -9 -14 -20 -14 -27 0 -25 18 5 42 43 33 33 50 -27 47 -48 -3
-53 -1 -56 18 -3 20 -1 21 34 12 20 -6 45 -9 55 -6 10 3 26 -1 36 -9 12 -9 49
-13 112 -14 l93 0 -15 23 c-13 20 -22 22 -108 22 -76 0 -94 3 -94 15 0 12 16
14 95 11 88 -3 97 -5 128 -32 18 -16 36 -29 40 -29 4 1 27 21 52 45 43 43 47
45 107 46 86 2 84 1 101 27 14 22 14 22 -37 22 -39 0 -51 -4 -51 -15 0 -8 -9
-15 -20 -15 -26 0 -26 26 -1 40 11 5 40 10 65 10 53 0 63 10 35 36 -34 30
-105 20 -148 -22 -33 -32 -39 -34 -105 -34 -46 0 -75 -5 -85 -14 -10 -9 -46
-16 -91 -19 -41 -2 -81 -6 -89 -8 -8 -2 -17 4 -19 15 -4 17 2 18 75 12 83 -7
107 0 101 29 -5 28 -34 42 -57 28 -20 -13 -31 -8 -31 14 0 23 65 16 98 -12 25
-21 40 -25 94 -25 55 0 68 4 87 24 18 19 20 24 7 29 -8 3 -24 4 -34 2 -12 -2
-32 9 -52 30 -18 19 -38 31 -43 28 -6 -3 -7 -1 -3 5 5 9 -11 12 -55 12 -58 0
-66 -3 -99 -34 -25 -24 -45 -35 -70 -36 -54 -3 -60 -1 -60 16 0 13 7 15 38 10
31 -6 42 -2 70 22 28 24 31 30 19 41 -8 6 -30 10 -48 9 -25 -2 -34 1 -34 12 0
11 9 14 33 12 18 -2 32 1 32 7 0 6 5 11 11 11 5 0 8 -4 5 -8 -3 -5 4 -16 15
-25 14 -12 38 -17 87 -17 65 0 70 -2 102 -35 33 -34 36 -35 112 -35 43 0 78 3
78 7 0 4 -19 27 -42 50 -40 41 -45 43 -103 43 -67 0 -107 8 -100 20 3 5 -9 20
-26 34 -23 19 -42 26 -75 26 -24 0 -44 5 -44 11 0 5 -5 7 -12 3 -7 -4 -8 -3
-4 4 4 6 -6 19 -21 29 -15 9 -30 18 -32 20 -2 1 2 9 9 18 11 13 17 10 47 -25
30 -35 40 -40 77 -40 36 0 48 -6 81 -41 39 -39 41 -40 105 -38 l65 2 80 -82
c89 -92 119 -110 144 -87 9 8 41 16 71 18 51 3 55 5 55 28 0 24 -2 25 -76 28
l-75 3 -64 64 -64 65 -87 0 c-69 0 -91 4 -110 19 -13 10 -31 16 -39 14 -12 -4
-13 -3 -1 5 11 8 0 23 -50 71 -35 34 -76 64 -91 67 -25 6 -28 11 -28 48 0 22
-3 51 -6 64 -5 17 -2 22 14 22 19 0 20 -4 15 -55 -6 -53 -5 -55 19 -55 13 0
29 -5 35 -11 21 -21 33 2 33 64 0 46 -3 58 -11 47 -8 -12 -9 -11 -5 6 5 15 0
24 -19 34 -31 17 -34 50 -3 50 12 0 18 -3 15 -7 -4 -4 4 -18 18 -33 18 -19 25
-38 27 -71 0 -24 6 -47 11 -51 7 -4 7 -11 -1 -20 -6 -7 -10 -29 -10 -48 1 -27
11 -44 50 -81 28 -26 56 -45 63 -43 7 3 16 1 19 -5 4 -6 14 -7 22 -4 12 4 -2
23 -55 77 -59 60 -71 78 -76 112 -3 30 -1 45 10 54 11 9 14 34 13 106 l-1 94
-35 30 c-19 16 -40 40 -46 52 -15 30 -33 33 -46 7z m210 -769 c0 -5 -5 -10
-11 -10 -5 0 -7 5 -4 10 3 6 8 10 11 10 2 0 4 -4 4 -10z m170 0 c0 -5 -4 -10
-10 -10 -5 0 -10 5 -10 10 0 6 5 10 10 10 6 0 10 -4 10 -10z m-250 -250 c0 -5
-2 -10 -4 -10 -3 0 -8 5 -11 10 -3 6 -1 10 4 10 6 0 11 -4 11 -10z m-80 -80
c0 -5 -4 -10 -10 -10 -5 0 -10 5 -10 10 0 6 5 10 10 10 6 0 10 -4 10 -10z
m517 -322 c-3 -8 -6 -5 -6 6 -1 11 2 17 5 13 3 -3 4 -12 1 -19z"/>
<path d="M4717 3223 c-10 -9 -8 -51 2 -57 5 -3 8 10 8 29 -1 19 -2 35 -2 35
-1 0 -5 -3 -8 -7z"/>
<path d="M3406 3124 c-33 -32 -13 -74 35 -74 45 0 56 64 13 80 -32 13 -30 13
-48 -6z"/>
<path d="M4518 3105 c2 -19 8 -38 13 -41 5 -3 8 -2 7 3 -2 4 2 8 7 8 6 0 9 -4
7 -8 -1 -5 2 -6 8 -2 15 9 12 62 -4 68 -8 3 -17 1 -20 -6 -3 -9 -5 -9 -5 1 -1
6 -5 12 -9 12 -4 0 -6 -16 -4 -35z"/>
<path d="M4422 3072 c0 -50 4 -68 19 -83 14 -14 19 -33 19 -76 0 -78 6 -92 50
-131 31 -27 37 -29 33 -13 -3 11 -10 19 -15 18 -6 -1 -10 31 -9 84 l2 85 -35
35 c-27 25 -36 43 -36 67 0 17 -4 32 -9 32 -5 0 -11 10 -14 23 -2 12 -4 -6 -5
-41z"/>
<path d="M5588 3103 c7 -3 16 -2 19 1 4 3 -2 6 -13 5 -11 0 -14 -3 -6 -6z"/>
<path d="M5660 3095 c7 -8 17 -15 22 -15 5 0 3 7 -6 15 -8 8 -18 15 -22 15 -3
0 -1 -7 6 -15z"/>
<path d="M5553 3078 c-6 -7 -8 -42 -5 -76 4 -56 7 -63 23 -59 11 3 19 1 19 -5
0 -5 4 -6 10 -3 6 4 7 -1 3 -11 -5 -12 -3 -15 6 -9 10 5 11 2 6 -14 -3 -11 -2
-29 4 -38 8 -14 11 -15 12 -3 1 8 1 19 0 23 -1 5 3 6 9 2 5 -3 21 5 34 18 22
22 26 23 40 9 13 -13 16 -13 16 -3 0 11 4 11 18 -2 16 -15 17 -11 16 59 -1 44
-6 80 -14 89 -17 20 -56 42 -46 26 4 -7 -1 -11 -13 -11 -14 0 -19 -5 -15 -15
8 -19 -15 -70 -38 -84 -25 -16 -37 13 -15 37 25 27 31 68 12 76 -9 3 -13 2
-10 -3 3 -5 0 -13 -6 -17 -6 -4 -16 1 -21 10 -11 19 -32 21 -45 4z m144 -90
c-3 -8 -6 -5 -6 6 -1 11 2 17 5 13 3 -3 4 -12 1 -19z"/>
<path d="M4475 3060 c-5 -7 8 -28 32 -52 30 -30 42 -36 46 -25 7 19 -68 94
-78 77z m70 -68 c-5 -6 -65 50 -65 61 0 5 16 -6 35 -24 19 -18 33 -35 30 -37z"/>
<path d="M5361 3049 c-12 -13 -21 -17 -26 -10 -7 12 -25 5 -25 -9 0 -5 7 -6
17 -3 12 5 14 3 8 -8 -7 -12 -6 -12 7 -1 16 12 23 5 34 -33 1 -5 7 -23 12 -40
11 -39 -3 -92 -29 -106 -11 -6 -38 -9 -60 -6 -21 2 -36 0 -33 -4 3 -5 3 -9 0
-9 -2 0 -11 14 -20 31 -12 25 -13 31 -1 35 7 3 23 -4 34 -15 12 -12 27 -21 34
-21 21 0 50 37 53 67 4 36 -11 60 -48 79 -81 42 -157 -29 -162 -153 -3 -78
-20 -117 -71 -162 -26 -22 -46 -31 -72 -31 -20 0 -33 -3 -30 -7 4 -3 1 -13 -5
-21 -10 -11 -8 -18 9 -31 24 -20 100 -26 119 -10 7 6 17 8 22 5 5 -3 21 3 35
15 29 22 50 80 41 114 -4 16 6 32 41 64 49 45 44 44 130 29 11 -2 24 -9 28
-15 12 -19 30 -16 23 3 -5 14 -4 15 8 5 21 -18 31 5 13 32 -7 12 -17 38 -20
57 -5 24 -4 30 2 20 9 -12 11 -12 17 4 4 10 2 21 -4 25 -13 8 -3 61 12 61 6 0
3 5 -6 11 -10 5 -18 15 -18 21 0 11 -29 37 -42 38 -4 0 -16 -9 -27 -21z m39 1
c0 -5 -7 -10 -16 -10 -8 0 -12 5 -9 10 3 6 10 10 16 10 5 0 9 -4 9 -10z"/>
<path d="M4991 3003 c-1 -13 -5 -23 -10 -23 -5 0 -10 -26 -9 -57 0 -89 7 -123
24 -123 8 0 12 -4 9 -10 -3 -5 1 -10 9 -10 9 0 16 5 16 10 0 6 3 9 8 8 4 -2 8
1 9 6 0 5 8 13 17 18 18 10 22 68 5 68 -6 0 -8 7 -5 16 4 10 -6 27 -25 47 -17
17 -35 40 -39 51 -9 21 -9 21 -9 -1z"/>
<path d="M4669 3008 c-1 -2 -3 -37 -4 -79 -1 -50 -8 -84 -19 -100 -15 -24 -15
-26 18 -58 25 -24 36 -45 41 -77 3 -26 16 -55 30 -70 22 -24 29 -26 85 -21 34
2 66 9 72 15 11 11 4 43 -9 41 -30 -5 -53 10 -123 82 l-80 81 -1 82 c-1 44 -1
87 0 94 2 10 -6 17 -10 10z"/>
<path d="M4400 2971 c7 -13 7 -22 0 -26 -17 -10 -11 -39 13 -62 l23 -22 3 44
c1 30 -4 50 -16 64 -22 26 -37 27 -23 2z"/>
<path d="M4879 2978 c0 -7 -1 -46 -1 -85 0 -40 -5 -70 -9 -67 -13 8 -23 -26
-11 -38 6 -6 16 -3 28 10 16 17 19 33 16 106 -2 47 -8 86 -13 86 -5 0 -9 -6
-10 -12z"/>
<path d="M4550 2931 c0 -6 5 -13 10 -16 6 -3 10 1 10 9 0 9 -4 16 -10 16 -5 0
-10 -4 -10 -9z"/>
<path d="M5483 2870 c2 -22 8 -40 13 -39 5 0 8 6 6 12 -2 6 4 5 12 -3 12 -9
16 -9 16 -1 0 7 5 9 10 6 6 -3 10 1 10 11 0 12 -6 15 -21 11 -15 -4 -22 1 -29
19 -14 36 -21 29 -17 -16z"/>
<path d="M5547 2902 c-16 -7 -16 -8 2 -24 17 -15 19 -14 19 8 0 13 -1 24 -2
23 0 0 -9 -4 -19 -7z"/>
<path d="M5101 2857 c3 -27 -3 -43 -24 -66 -15 -17 -32 -31 -38 -31 -5 0 -8
-4 -5 -9 4 -5 -3 -7 -15 -4 -25 7 -39 -11 -39 -49 0 -22 5 -28 23 -28 27 0 90
37 83 49 -3 5 1 11 9 15 8 3 15 17 15 31 0 14 5 25 10 25 6 0 10 5 10 11 0 8
-5 8 -15 -1 -8 -7 -15 -8 -15 -2 0 5 7 15 16 22 18 15 15 61 -4 68 -10 3 -13
-5 -11 -31z"/>
<path d="M4548 2845 c-3 -28 1 -38 23 -54 16 -12 26 -15 25 -8 -3 21 -17 38
-27 32 -5 -4 -6 7 -3 23 3 16 2 32 -4 36 -6 3 -12 -9 -14 -29z"/>
<path d="M5704 2856 c-4 -17 -12 -22 -28 -21 -15 2 -22 -3 -23 -16 -1 -12 3
-17 9 -13 7 5 9 1 5 -9 -3 -9 -2 -19 3 -22 5 -3 10 5 13 17 4 25 11 15 21 -34
6 -29 70 -100 80 -90 3 3 6 -7 6 -21 0 -15 5 -27 11 -27 6 0 8 -7 5 -16 -4
-10 -2 -13 7 -8 9 6 9 5 0 -7 -7 -8 -9 -26 -6 -39 5 -18 3 -22 -9 -17 -15 5
-38 -9 -38 -25 0 -4 13 -8 29 -8 19 0 36 -8 47 -22 11 -16 15 -17 11 -5 -4 9
-2 29 3 43 6 14 6 23 1 20 -5 -3 -12 1 -15 10 -3 8 -2 13 3 9 5 -3 5 10 -1 27
-6 18 -13 39 -14 46 -2 7 -8 10 -14 7 -5 -3 -10 -1 -10 4 0 6 4 11 9 11 4 0
14 20 21 45 13 46 7 95 -11 95 -6 0 -9 -6 -6 -13 3 -8 -2 -13 -12 -12 -28 2
-38 13 -36 40 2 14 -1 27 -6 31 -5 3 -7 9 -4 13 2 5 -7 13 -20 19 -22 10 -25
9 -31 -12z"/>
<path d="M5590 2846 c0 -7 -6 -19 -14 -26 -15 -12 -11 -44 5 -35 4 3 6 12 2
20 -3 8 -1 15 5 15 6 0 9 -11 7 -25 -1 -15 3 -25 10 -25 18 0 26 38 9 44 -8 3
-14 10 -14 16 0 6 4 8 10 5 6 -3 7 1 4 9 -8 20 -24 21 -24 2z"/>
<path d="M5470 2786 c0 -8 4 -17 9 -20 5 -4 7 3 4 14 -6 23 -13 26 -13 6z"/>
<path d="M5271 2764 c-11 -15 -19 -30 -16 -34 3 -4 -2 -10 -10 -14 -9 -3 -15
-19 -15 -38 -1 -66 -51 -115 -132 -127 -28 -5 -65 -5 -82 0 -16 5 -32 6 -35 4
-2 -3 2 -5 10 -5 11 0 11 -2 -1 -10 -13 -8 -12 -10 5 -11 11 -1 29 -1 40 0 19
1 19 1 2 -9 -15 -10 -9 -15 44 -42 35 -18 88 -57 121 -90 32 -32 63 -58 69
-58 5 0 7 4 4 10 -3 6 1 7 9 4 9 -3 16 -1 16 5 0 6 -4 11 -10 11 -5 0 -10 5
-10 11 0 5 5 7 12 3 8 -5 9 -2 5 9 -3 9 -2 19 3 22 6 4 10 15 10 27 0 17 -4
19 -26 14 -21 -6 -25 -4 -22 11 2 10 11 17 20 15 9 -1 19 2 23 8 3 5 14 10 24
10 10 0 26 10 35 23 9 12 14 17 11 10 -3 -7 -3 -24 1 -38 5 -20 11 -24 26 -19
14 4 18 2 14 -5 -4 -6 -2 -11 3 -11 14 0 14 17 1 25 -5 3 -7 12 -3 20 3 8 1
15 -4 15 -15 0 -33 47 -33 85 0 19 -5 37 -12 41 -8 5 -9 2 -5 -11 5 -12 -1
-25 -20 -41 -29 -25 -39 -28 -84 -26 -28 2 -69 -30 -69 -53 0 -24 36 -17 56
10 l19 25 8 -22 c6 -17 3 -26 -10 -36 -28 -20 -62 -25 -78 -12 -19 16 -19 64
0 84 9 8 14 18 13 22 -2 4 20 8 47 8 28 1 56 5 62 9 15 9 40 52 25 44 -5 -4
-7 4 -5 17 3 15 -1 25 -12 30 -21 8 -37 -2 -29 -17 4 -7 -1 -4 -11 5 -29 27
-13 48 30 38 20 -5 38 -10 39 -12 1 -1 10 -14 19 -28 9 -13 17 -20 18 -15 0 6
2 22 4 37 2 17 -1 27 -8 25 -7 -1 -13 7 -13 18 -1 11 -2 28 -3 38 -1 9 -9 17
-18 17 -15 0 -16 -2 -3 -10 12 -8 11 -10 -7 -10 -13 0 -23 5 -23 10 0 18 -18
11 -39 -16z m96 -196 c-3 -8 -6 -5 -6 6 -1 11 2 17 5 13 3 -3 4 -12 1 -19z"/>
<path d="M5511 2781 c-8 -5 -9 -11 -3 -15 5 -3 12 1 16 9 6 17 6 18 -13 6z"/>
<path d="M4613 2765 c0 -8 3 -12 7 -10 3 2 12 -10 19 -26 12 -27 48 -43 38
-16 -2 6 -10 11 -17 9 -7 -2 -10 3 -7 11 3 8 -3 21 -14 31 -24 20 -26 20 -26
1z"/>
<path d="M5372 2750 c0 -20 3 -27 13 -24 8 3 15 -2 18 -13 2 -10 3 -5 1 10 -2
16 -10 34 -17 42 -12 11 -14 9 -15 -15z"/>
<path d="M5437 2747 c-3 -9 0 -17 8 -19 13 -3 12 -8 -1 -33 -19 -34 -19 -95
-1 -107 9 -6 8 -8 -2 -8 -8 0 -20 8 -27 18 -12 15 -13 15 -14 -9 0 -15 7 -32
15 -39 13 -11 15 -10 9 6 -4 14 -1 13 15 -6 11 -14 21 -28 21 -31 0 -4 18 -2
40 3 38 10 40 13 38 45 -1 19 -6 37 -12 40 -5 4 -6 1 -1 -7 6 -10 4 -12 -9 -7
-10 4 -27 7 -38 7 -13 0 -18 6 -16 18 2 9 8 17 15 17 6 0 15 3 19 8 4 4 15 7
25 7 15 0 16 5 7 40 -9 35 -14 40 -39 40 -15 0 -32 7 -37 16 -8 14 -10 15 -15
1z"/>
<path d="M5560 2740 c0 -5 5 -10 10 -10 6 0 10 5 10 10 0 6 -4 10 -10 10 -5 0
-10 -4 -10 -10z"/>
<path d="M5643 2660 c-21 -18 -39 -27 -50 -24 -12 4 -11 1 3 -8 19 -11 20 -15
7 -27 -19 -18 -10 -25 16 -12 16 9 22 8 30 -6 10 -17 12 -17 26 2 11 13 13 29
9 50 -4 16 -7 36 -7 43 0 6 -1 12 -1 12 -1 0 -16 -14 -33 -30z"/>
<path d="M5690 2640 c0 -5 5 -12 11 -15 6 -4 8 -13 5 -21 -10 -25 11 -24 23 2
16 35 14 39 -14 40 -14 1 -25 -2 -25 -6z"/>
<path d="M5508 2633 c6 -2 18 -2 25 0 6 3 1 5 -13 5 -14 0 -19 -2 -12 -5z"/>
<path d="M5572 2505 c-10 -12 -10 -15 0 -16 7 -1 -3 -5 -22 -10 -19 -5 -50 -6
-67 -4 -37 5 -43 -9 -17 -41 8 -10 12 -12 9 -4 -4 8 4 2 19 -14 21 -24 27 -26
32 -12 8 20 24 21 24 1 0 -8 5 -15 10 -15 6 0 10 5 10 10 0 6 8 10 18 10 14 0
15 -2 2 -10 -13 -8 -12 -10 3 -10 20 0 24 49 5 68 -9 9 -7 17 10 35 16 17 18
24 8 24 -8 0 -14 -5 -13 -10 1 -5 -4 -12 -11 -14 -8 -3 -10 1 -6 11 8 20 3 20
-14 1z"/>
<path d="M5738 2492 c-10 -2 -18 -7 -18 -11 0 -8 47 -7 55 1 8 8 -17 15 -37
10z"/>
<path d="M4980 2447 c0 -10 10 -22 23 -27 66 -28 90 -78 81 -170 -6 -59 -3
-75 16 -115 13 -27 40 -59 64 -77 35 -26 47 -29 84 -24 24 3 73 20 110 37 36
17 79 33 94 36 15 3 28 11 28 17 0 6 5 4 10 -4 7 -11 10 -5 10 23 0 26 4 37
15 37 8 0 15 6 15 13 0 7 16 19 35 26 19 7 33 17 30 22 -4 5 1 12 9 15 9 3 16
15 16 26 0 10 -4 16 -10 13 -5 -3 -10 -1 -10 5 0 7 -8 9 -20 5 -14 -5 -20 -2
-20 9 0 32 -59 5 -60 -27 0 -7 -7 -4 -14 6 -12 16 -14 16 -20 2 -3 -9 -2 -14
3 -11 4 3 7 -18 6 -47 -1 -36 -5 -51 -14 -49 -9 2 -10 -4 -6 -19 4 -13 3 -19
-2 -16 -5 3 -29 0 -54 -7 -50 -15 -96 -6 -122 21 -16 19 -17 21 -17 53 0 11
-7 20 -15 20 -8 0 -15 5 -15 10 0 6 4 10 10 10 16 0 -8 50 -45 96 -42 51 -124
107 -148 100 -9 -2 -15 0 -12 5 3 4 -8 7 -25 6 -21 -1 -30 -7 -30 -20z m167
-73 c15 -23 15 -34 5 -96 -12 -71 -4 -114 21 -105 17 5 20 27 4 27 -25 0 -28
27 -4 34 29 7 39 -5 35 -45 -2 -28 -7 -35 -30 -37 -42 -5 -72 31 -63 76 17 96
17 128 1 141 -20 17 -21 31 -1 31 8 0 22 -12 32 -26z m83 -89 c0 -8 -2 -15 -4
-15 -2 0 -6 7 -10 15 -3 8 -1 15 4 15 6 0 10 -7 10 -15z m315 -35 c-3 -5 -10
-10 -16 -10 -5 0 -9 5 -9 10 0 6 7 10 16 10 8 0 12 -4 9 -10z m-58 -22 c-3 -8
-6 -5 -6 6 -1 11 2 17 5 13 3 -3 4 -12 1 -19z"/>
<path d="M4970 2356 c0 -31 5 -49 18 -58 33 -25 45 -63 38 -122 -8 -59 -6 -63
23 -44 15 9 17 18 10 47 -8 38 -6 85 5 112 8 19 -13 62 -44 89 -37 32 -50 26
-50 -24z"/>
<path d="M5372 2384 c4 -3 -7 -18 -23 -33 -40 -37 -30 -68 20 -61 9 1 12 -4 7
-15 -3 -9 -6 -21 -6 -26 0 -15 -30 -10 -36 6 -4 9 -15 20 -26 26 -15 8 -19 8
-14 0 4 -6 2 -11 -4 -11 -6 0 -10 -12 -8 -27 2 -16 8 -27 16 -25 9 1 11 -5 6
-22 -5 -21 -2 -26 20 -32 35 -9 71 2 96 28 21 23 28 78 9 78 -5 0 -8 4 -5 9 3
5 -7 11 -22 14 -23 5 -28 11 -27 37 0 17 6 34 13 39 11 6 10 10 -4 15 -10 4
-15 4 -12 0z"/>
<path d="M4976 2251 c-3 -5 -5 -34 -5 -65 1 -46 4 -54 15 -45 8 7 14 31 14 60
0 45 -12 70 -24 50z"/>
<path d="M5522 2144 c4 -3 23 -10 43 -14 21 -5 34 -5 29 -1 -10 10 -80 24 -72
15z"/>
<path d="M5570 2110 c8 -5 20 -10 25 -10 6 0 3 5 -5 10 -8 5 -19 10 -25 10 -5
0 -3 -5 5 -10z"/>
<path d="M5007 2093 c-11 -10 -8 -108 3 -138 6 -15 16 -33 24 -41 16 -15 95
-18 161 -5 59 11 107 -21 124 -82 28 -99 -22 -170 -139 -196 -34 -7 -51 -6
-84 9 -88 37 -87 158 2 176 30 6 92 -18 92 -36 0 -13 -27 -13 -35 0 -10 17
-71 11 -88 -8 -22 -24 -21 -46 0 -83 46 -78 231 -20 234 73 2 52 -1 61 -29 90
-35 37 -53 41 -109 25 -84 -24 -133 -5 -180 69 -10 16 -12 7 -11 -51 0 -38 -1
-155 -3 -260 -2 -138 1 -196 10 -213 6 -12 9 -28 5 -34 -4 -6 -3 -8 3 -5 12 7
36 -16 28 -26 -3 -4 -2 -5 1 -3 3 2 24 -4 47 -14 65 -29 133 -34 210 -16 38 9
73 14 78 10 5 -3 8 0 7 8 -2 7 5 12 14 12 10 -1 16 2 13 6 -3 4 1 10 9 13 7 3
31 33 53 66 22 34 43 58 47 54 4 -4 4 0 0 10 -11 31 70 100 156 132 41 15 84
36 94 46 22 20 36 102 28 162 -4 29 -9 37 -26 37 -15 0 -17 3 -7 9 9 6 5 10
-15 13 -16 3 -38 9 -48 13 -15 6 -17 5 -11 -5 5 -9 4 -11 -3 -6 -24 15 -33 -6
-10 -22 22 -16 26 -18 48 -21 15 -2 12 -31 -3 -31 -18 0 -51 -46 -66 -91 -6
-20 -23 -46 -36 -59 -21 -20 -31 -22 -80 -17 -30 3 -55 4 -55 2 0 -1 7 -19 15
-39 11 -27 13 -42 5 -56 -16 -29 -45 -42 -73 -31 -45 17 -50 73 -9 96 15 9 19
14 8 11 -12 -4 -17 -2 -13 6 3 8 -5 14 -19 14 -29 2 -39 -34 -29 -115 11 -99
-36 -151 -139 -151 -63 0 -90 15 -116 66 -27 56 -20 98 21 123 34 21 81 17 72
-5 -3 -8 -10 -14 -17 -13 -38 5 -57 -3 -66 -26 -11 -30 1 -69 32 -102 23 -25
68 -31 68 -10 0 8 3 8 9 -2 8 -12 16 -13 50 -3 61 19 72 42 65 134 -6 66 -4
82 14 116 11 22 19 43 16 46 -2 3 -1 4 3 1 4 -3 13 5 20 17 l14 23 -6 -25 -6
-25 15 26 c8 14 16 43 18 63 1 23 7 36 16 36 10 0 12 -8 7 -30 -4 -19 -3 -30
4 -30 6 0 11 -5 11 -11 0 -5 -5 -7 -10 -4 -6 3 -1 -10 11 -30 24 -40 46 -55
84 -55 30 0 75 40 75 67 0 10 7 31 15 47 13 24 13 27 1 23 -8 -3 -16 -1 -18 4
-2 5 -36 13 -77 18 -59 6 -78 12 -92 30 -11 13 -19 30 -19 39 0 13 -3 13 -19
-2 -15 -13 -20 -14 -25 -4 -3 7 -3 -8 0 -34 8 -65 -2 -119 -21 -112 -11 5 -12
11 -5 24 17 32 9 107 -10 95 -5 -3 -8 17 -7 44 2 60 46 122 80 113 16 -4 19
-2 14 11 -5 12 -1 17 13 17 10 0 22 5 25 10 9 15 -9 12 -67 -11 -29 -12 -68
-26 -86 -31 -18 -5 -30 -12 -28 -17 3 -4 -22 -4 -56 0 -53 6 -65 12 -104 50
-24 24 -44 41 -45 39 0 -3 -3 -31 -6 -62 -4 -48 -1 -60 16 -77 17 -17 25 -19
41 -11 26 14 25 37 -1 45 -17 6 -19 9 -8 16 23 14 35 10 47 -16 7 -14 12 -28
12 -30 0 -11 -46 -45 -61 -45 -25 0 -69 39 -69 61 0 10 -4 19 -10 19 -5 0 -10
5 -10 11 0 5 5 7 10 4 6 -4 10 10 10 35 0 25 -4 39 -10 35 -5 -3 -10 -1 -10 4
0 12 -13 14 -23 4z"/>
<path d="M5538 2013 c0 -10 -1 -25 -2 -33 -1 -18 -31 -25 -41 -10 -7 12 -55
-36 -55 -56 0 -20 46 -54 74 -54 30 0 91 54 80 71 -3 5 2 9 10 9 9 0 16 6 16
13 0 8 -7 14 -15 14 -8 0 -12 -4 -9 -9 3 -4 1 -8 -4 -8 -5 0 -13 17 -18 37
-10 39 -33 57 -36 26z"/>
<path d="M4865 1960 c-15 -16 -15 -22 -5 -35 22 -27 40 -18 40 20 0 40 -9 44
-35 15z"/>
<path d="M5780 1843 c0 -21 3 -24 9 -14 5 8 7 20 4 28 -8 21 -13 15 -13 -14z"/>
<path d="M6650 1846 c-6 -9 -10 -21 -8 -28 3 -8 9 -4 17 10 15 28 9 39 -9 18z"/>
<path d="M4880 1761 c0 -34 4 -61 10 -61 6 0 10 24 10 54 0 30 -4 58 -10 61
-6 4 -10 -17 -10 -54z"/>
<path d="M5426 1625 c-3 -8 -12 -15 -21 -15 -20 0 -19 -24 1 -44 19 -20 54 -5
54 24 0 42 -22 65 -34 35z"/>
<path d="M7240 1203 c-11 -2 -15 -16 -15 -42 0 -39 0 -39 35 -33 19 3 38 10
42 16 15 23 -30 66 -62 59z"/>
<path d="M7250 1005 c-30 -32 -16 -31 35 0 37 23 38 25 14 25 -14 0 -36 -11
-49 -25z"/>
<path d="M8088 53 c7 -3 16 -2 19 1 4 3 -2 6 -13 5 -11 0 -14 -3 -6 -6z"/>
<path d="M8525 20 c-10 -11 -14 -20 -9 -20 5 0 15 9 22 20 7 11 11 20 9 20 -2
0 -12 -9 -22 -20z"/>
</g>
</svg>
