<?xml version="1.0" standalone="no"?>
<!DOCTYPE svg PUBLIC "-//W3C//DTD SVG 20010904//EN"
 "http://www.w3.org/TR/2001/REC-SVG-20010904/DTD/svg10.dtd">
<svg version="1.0" xmlns="http://www.w3.org/2000/svg"
 width="1024.000000pt" height="471.000000pt" viewBox="0 0 1024.000000 471.000000"
 preserveAspectRatio="xMidYMid meet">

<g transform="translate(0.000000,471.000000) scale(0.100000,-0.100000)"
fill="#000000" stroke="none">
<path d="M0 2355 l0 -2355 5120 0 5120 0 0 2355 0 2355 -5120 0 -5120 0 0
-2355z m4493 968 c-18 -2 -48 -2 -65 0 -18 2 -4 4 32 4 36 0 50 -2 33 -4z
m215 0 c-21 -2 -57 -2 -80 0 -24 2 -7 4 37 4 44 0 63 -2 43 -4z m100 0 c-10
-2 -26 -2 -35 0 -10 3 -2 5 17 5 19 0 27 -2 18 -5z m65 0 c-7 -2 -19 -2 -25 0
-7 3 -2 5 12 5 14 0 19 -2 13 -5z m985 -29 c-4 -3 -12 5 -18 18 -12 22 -12 22
6 6 10 -10 15 -20 12 -24z m68 -18 c10 -18 26 -20 241 -24 l231 -4 26 41 c15
22 29 41 32 41 7 0 -3 -17 -33 -57 l-24 -33 -227 0 c-125 0 -232 4 -237 8 -16
11 -45 59 -45 74 0 12 12 -4 36 -46z m583 -5 l-32 -59 113 -188 c62 -104 118
-192 124 -196 6 -5 111 -8 232 -7 l222 0 38 62 c22 34 41 66 44 72 3 6 38 63
78 126 39 64 72 121 72 128 0 6 -7 25 -15 41 -21 41 -11 38 15 -5 l22 -36 -47
-82 c-26 -45 -79 -135 -117 -200 -42 -70 -67 -124 -64 -133 3 -9 56 -100 116
-203 61 -103 110 -194 110 -201 0 -17 -216 -384 -236 -401 -13 -10 -12 -15 5
-33 23 -25 231 -386 231 -401 0 -12 -216 -375 -234 -394 -14 -13 -54 -15 -358
-12 l-128 1 -25 41 c-61 96 -215 360 -215 368 0 10 145 259 208 358 32 50 37
64 27 73 -7 6 -50 75 -95 153 -46 78 -90 153 -99 167 -32 51 -42 75 -38 91 3
9 55 100 116 202 61 102 111 191 111 198 0 6 -22 48 -49 93 -89 149 -171 301
-171 318 0 16 58 118 67 118 2 0 -10 -26 -28 -59z m964 6 c11 -16 34 -18 235
-22 229 -5 261 -1 263 35 0 11 2 12 6 2 3 -7 -3 -22 -13 -33 -17 -19 -30 -20
-244 -18 -125 0 -231 4 -237 7 -5 4 -19 25 -32 47 -21 37 -7 25 22 -18z
m-2518 13 c-15 -28 -14 -33 2 -63 10 -18 20 -34 23 -37 3 -3 48 -76 99 -162
l95 -158 230 0 231 0 20 35 c22 39 127 209 182 293 21 33 32 60 28 70 -5 14
-4 15 7 4 10 -10 7 -23 -18 -70 -53 -99 -198 -347 -205 -350 -4 -2 24 -53 61
-115 156 -259 182 -307 176 -324 -4 -9 -59 -104 -122 -210 l-115 -193 -248 0
-249 0 -20 43 c-11 23 -45 83 -76 132 -93 150 -92 147 16 -54 16 -31 34 -60
39 -66 5 -5 9 -18 9 -29 0 -21 -9 -39 -143 -263 l-90 -153 -242 0 -243 0 -4
-25 c-4 -17 -2 -23 6 -18 6 5 118 6 249 3 l237 -5 115 -200 c63 -110 115 -204
115 -209 0 -12 -65 -124 -126 -218 -24 -37 -44 -70 -44 -73 0 -4 -16 -31 -36
-61 l-36 -54 -238 0 -239 0 -44 73 c-25 39 -80 130 -123 201 l-78 130 27 50
c15 27 25 51 23 54 -3 2 -12 -10 -20 -27 -9 -17 -25 -35 -35 -41 -21 -11 -448
-14 -476 -4 -9 4 -27 28 -40 54 -13 26 -66 117 -116 201 l-92 153 19 36 c11
19 55 95 98 169 42 73 75 140 72 147 -3 8 0 13 6 11 7 -1 18 10 25 25 8 16 24
30 36 33 12 3 124 5 248 3 146 -2 226 1 226 7 1 22 10 41 50 104 28 44 41 73
37 86 -4 15 -3 17 4 6 8 -11 15 -4 32 30 13 24 26 46 29 49 4 3 25 35 46 73
l39 67 250 -2 250 -3 35 -67 c20 -38 39 -68 44 -68 4 0 -6 27 -23 59 -28 51
-30 62 -20 83 33 63 206 346 224 366 12 14 17 26 11 30 -15 10 -36 46 -141
235 l-95 172 15 33 c9 17 18 32 21 32 3 0 -2 -14 -10 -30z m2409 14 c3 -8 2
-12 -4 -9 -6 3 -10 10 -10 16 0 14 7 11 14 -7z m-953 -84 c3 0 52 -78 109
-172 57 -95 109 -183 116 -195 8 -12 14 -29 14 -38 0 -14 -184 -336 -225 -392
-16 -23 -19 -23 -250 -23 -216 0 -236 1 -254 19 -10 10 -45 65 -77 122 -32 57
-80 140 -106 184 -27 44 -48 85 -48 91 0 13 189 332 226 381 l24 32 232 -4
c128 -3 236 -5 239 -5z m3142 -229 c64 -109 117 -203 117 -209 0 -13 -35 -74
-147 -261 l-92 -153 32 -52 c95 -149 209 -358 204 -375 -2 -10 -56 -104 -118
-210 l-114 -191 -242 1 c-134 0 -243 -2 -243 -5 0 -37 -8 -36 239 -36 l240 0
19 -27 c33 -48 186 -323 179 -323 -2 0 -46 71 -98 158 -51 86 -98 160 -104
164 -5 4 -111 8 -235 8 l-226 0 -18 -32 c-11 -18 -64 -107 -119 -196 l-100
-164 17 -30 c10 -16 16 -31 14 -34 -2 -2 -14 15 -25 37 l-21 42 -237 2 c-130
1 -240 6 -245 11 -10 11 -129 207 -188 312 -23 41 -42 81 -42 90 0 17 217 392
235 405 5 4 117 6 248 5 184 -2 237 0 237 10 0 9 -55 12 -240 12 -216 0 -242
2 -256 18 -9 9 -44 67 -78 127 -34 61 -84 147 -110 192 l-48 82 112 188 c62
103 119 196 128 206 14 15 39 17 254 17 171 0 238 3 238 11 0 7 53 99 118 205
l117 194 241 0 240 0 117 -199z m-1585 -623 c5 -7 36 -58 67 -113 32 -55 82
-142 111 -192 30 -51 54 -96 54 -99 0 -9 -199 -343 -227 -382 l-24 -32 -222 1
c-122 0 -230 4 -241 8 -19 7 -246 384 -246 409 0 13 182 329 222 385 l19 27
238 0 c179 0 241 -3 249 -12z m-1555 -10 c13 -10 127 -192 127 -203 0 -2 25
-45 56 -96 35 -61 54 -102 51 -116 -2 -13 -55 -108 -118 -213 l-114 -190 -245
0 -245 0 -36 63 c-20 34 -72 124 -117 200 -45 76 -82 144 -82 153 0 8 28 60
63 117 35 56 85 140 111 187 27 47 55 91 64 98 12 9 76 12 242 12 165 0 231
-3 243 -12z m-2183 -148 c0 -5 -4 -10 -10 -10 -5 0 -10 -7 -10 -17 0 -9 -3
-14 -6 -10 -8 8 5 47 17 47 5 0 9 -4 9 -10z m-2925 -248 c33 -16 83 -37 110
-46 28 -9 84 -27 125 -41 41 -13 69 -24 63 -25 -7 0 -13 -5 -13 -10 0 -7 6 -7
20 0 29 16 85 -2 161 -52 35 -23 105 -63 154 -89 143 -75 219 -124 234 -151
13 -23 13 -29 -2 -52 -22 -33 -71 -36 -89 -6 -7 11 -18 20 -25 20 -6 0 -13 4
-15 9 -3 10 -76 50 -238 132 -25 12 -47 25 -50 29 -11 13 -126 64 -150 66 -25
2 -75 15 -157 39 -24 7 -43 8 -43 4 0 -5 19 -26 42 -47 22 -20 83 -86 135
-145 96 -113 104 -131 81 -183 l-13 -27 -5 24 c-8 32 -40 38 -40 8 0 -18 -5
-13 -22 21 -18 35 -42 57 -106 100 -45 30 -85 63 -88 73 -3 9 -9 15 -14 12 -5
-3 -11 -1 -15 5 -3 5 -10 10 -16 10 -19 0 -7 -23 35 -67 68 -72 74 -79 107
-138 17 -30 29 -62 26 -70 -4 -9 -1 -12 8 -8 12 4 14 -2 9 -28 -9 -43 -13 -48
-27 -29 -7 8 -18 15 -24 16 -28 2 -33 5 -33 17 0 6 -11 21 -25 32 -55 43 -85
74 -85 84 0 6 -16 26 -35 45 -19 20 -35 40 -35 46 0 15 -17 12 -24 -5 -9 -24
28 -75 72 -101 22 -13 46 -38 54 -54 7 -17 19 -30 25 -30 7 0 13 -9 13 -19 0
-11 5 -23 10 -26 6 -3 10 -13 10 -21 0 -10 -12 -14 -39 -14 -32 0 -44 6 -72
38 -18 20 -38 36 -45 34 -7 -1 -15 11 -19 28 -6 27 -19 36 -47 31 -5 0 -8 6
-8 14 0 8 -3 15 -8 15 -4 0 -18 18 -32 40 -14 22 -28 40 -32 40 -4 0 -10 17
-14 37 -6 32 -4 39 21 59 26 20 27 26 30 120 5 137 12 173 37 193 l21 18 -24
16 c-13 10 -19 17 -14 17 5 0 4 5 -2 11 -9 9 -8 15 0 24 14 14 45 5 142 -43z
m4347 2 c4 -3 25 -35 46 -72 22 -37 74 -127 117 -201 59 -102 75 -138 68 -150
-6 -9 -60 -100 -122 -203 -88 -147 -118 -189 -137 -194 -14 -4 -112 -4 -217
-1 -106 4 -204 7 -218 7 -30 0 -43 20 -193 277 -69 118 -76 134 -65 155 25 49
213 364 227 380 14 16 35 17 250 12 130 -3 239 -7 244 -10z m2273 -472 c18
-12 235 -389 235 -407 0 -11 -110 -195 -116 -195 -6 0 3 16 61 114 25 43 45
81 43 85 -25 53 -227 375 -240 382 -10 5 -110 8 -234 7 l-216 -3 -114 -188
c-63 -104 -114 -194 -114 -200 0 -7 18 -44 41 -82 52 -89 86 -157 64 -130 -47
59 -127 206 -121 222 4 10 57 105 119 210 l112 193 235 0 c129 0 240 -4 245
-8z m-6385 -198 c0 -8 -5 -12 -10 -9 -6 4 -8 11 -5 16 9 14 15 11 15 -7z
m1058 -1 c24 -21 35 -53 23 -71 -10 -16 -41 -5 -41 15 0 8 -5 11 -11 7 -7 -4
-9 0 -5 14 4 11 2 23 -4 27 -11 7 -4 25 9 25 5 0 18 -8 29 -17z m612 -23 c25
-25 25 -51 0 -81 -15 -19 -19 -20 -20 -8 0 9 -6 19 -14 22 -16 7 -27 67 -12
68 6 0 2 4 -9 9 -18 8 -17 9 8 9 15 1 36 -8 47 -19z m-1770 -36 c0 -9 -7 -14
-17 -12 -25 5 -28 28 -4 28 12 0 21 -6 21 -16z m2058 -27 c3 -16 -31 -57 -47
-57 -15 0 -20 40 -9 71 10 28 12 29 32 16 11 -8 22 -21 24 -30z m6150 -92 c-3
-3 -9 2 -12 12 -6 14 -5 15 5 6 7 -7 10 -15 7 -18z m-3996 -62 c13 -16 49 -78
146 -253 14 -25 31 -54 38 -65 8 -11 14 -24 14 -29 0 -11 -56 76 -138 216 -35
59 -69 112 -76 118 -9 7 -87 10 -236 8 l-223 -3 -93 -149 c-52 -82 -99 -154
-106 -160 -6 -6 -4 2 6 17 9 15 27 47 40 70 31 58 127 219 139 235 7 9 68 12
242 12 208 0 233 -2 247 -17z m1718 -228 c14 -19 14 -19 -2 -6 -10 7 -18 18
-18 24 0 6 1 8 3 6 1 -2 9 -13 17 -24z m-2419 -146 c-12 -19 -21 -30 -21 -26
0 14 31 69 36 64 3 -3 -4 -20 -15 -38z"/>
<path d="M6600 2589 c-62 -105 -109 -197 -106 -205 16 -41 181 -307 197 -317
11 -7 19 -22 19 -34 0 -22 3 -23 93 -21 l92 2 -87 3 c-80 3 -88 6 -88 23 0 18
7 20 76 20 62 0 75 3 71 14 -5 12 11 15 86 19 109 4 219 26 230 44 5 8 19 11
38 8 16 -3 29 -1 29 3 0 5 24 47 54 93 30 46 63 98 74 116 l20 31 -105 184
c-58 101 -110 189 -115 196 -8 9 -68 12 -238 12 l-228 0 -112 -191z m505 -395
c17 -18 16 -36 -3 -40 -7 -1 -8 0 -2 3 19 9 10 23 -12 18 -14 -4 -31 1 -43 10
-11 9 -14 14 -7 10 6 -3 12 -1 12 4 0 17 37 13 55 -5z m-90 -33 c-3 -6 -14
-11 -23 -11 -13 0 -13 2 4 14 21 15 30 14 19 -3z m-168 -6 c8 -9 13 -19 9 -22
-7 -7 -36 16 -36 28 0 13 10 11 27 -6z m-80 -1 c-3 -3 -12 -4 -19 -1 -8 3 -5
6 6 6 11 1 17 -2 13 -5z m-50 -63 c6 6 19 6 34 0 21 -8 22 -10 7 -15 -51 -17
-55 -16 -76 24 l-13 25 19 -22 c12 -14 23 -18 29 -12z m323 19 c0 -5 -12 -10
-27 -10 -22 0 -25 2 -13 10 20 13 40 13 40 0z m-225 -30 c3 -5 1 -10 -4 -10
-6 0 -11 5 -11 10 0 6 2 10 4 10 3 0 8 -4 11 -10z"/>
<path d="M7212 2108 c-15 -41 -10 -45 11 -8 10 16 14 31 9 34 -4 2 -13 -9 -20
-26z"/>
<path d="M6978 2043 c12 -2 32 -2 45 0 12 2 2 4 -23 4 -25 0 -35 -2 -22 -4z"/>
<path d="M7150 2020 c-9 -6 -10 -10 -3 -10 6 0 15 5 18 10 8 12 4 12 -15 0z"/>
<path d="M7073 2013 c9 -2 23 -2 30 0 6 3 -1 5 -18 5 -16 0 -22 -2 -12 -5z"/>
<path d="M6652 1842 c-34 -59 -85 -145 -112 -192 -28 -47 -50 -89 -50 -94 0
-5 8 -23 18 -40 11 -17 61 -102 112 -188 l92 -158 229 0 229 0 26 43 c13 23
65 110 113 192 l89 150 -31 55 c-17 30 -47 82 -67 115 -20 33 -41 69 -47 80
-7 11 -28 48 -48 83 l-36 62 -227 0 -227 -1 -63 -107z"/>
<path d="M5173 2808 c-6 -7 -58 -96 -117 -197 l-107 -183 60 -102 c150 -257
167 -281 195 -284 14 -2 26 2 26 8 0 6 4 9 8 6 5 -3 18 4 30 14 24 22 62 26
80 8 8 -8 12 -8 12 -1 0 19 51 30 149 32 83 2 96 5 112 24 l18 22 -5 -25 -6
-25 21 25 c11 14 21 20 21 13 0 -6 -4 -15 -10 -18 -5 -3 -10 -11 -10 -17 0
-20 29 14 62 71 18 31 58 98 90 149 l58 93 -16 32 c-21 40 -159 280 -189 328
l-23 36 -224 2 c-174 1 -227 -1 -235 -11z m547 -568 c0 -5 -2 -10 -4 -10 -3 0
-8 5 -11 10 -3 6 -1 10 4 10 6 0 11 -4 11 -10z m-515 -150 c-9 -15 -25 -2 -25
21 0 19 1 19 16 5 8 -9 12 -20 9 -26z"/>
<path d="M4306 2241 c-58 -99 -109 -187 -112 -195 -6 -15 198 -373 220 -388
19 -13 404 -9 412 4 5 7 2 9 -9 5 -16 -6 -27 10 -20 31 6 17 23 15 23 -3 0 -9
7 -18 15 -21 8 -4 12 -11 9 -16 -4 -6 -1 -9 7 -6 14 5 197 288 224 349 l17 36
-109 189 -108 189 -231 3 -231 2 -107 -179z"/>
<path d="M5440 2062 c0 -8 -25 -10 -82 -7 l-83 4 78 -11 c57 -8 81 -8 90 1 6
6 8 14 4 18 -4 3 -7 1 -7 -5z"/>
<path d="M5617 2055 c3 -8 9 -12 14 -9 12 7 11 11 -5 17 -10 4 -13 1 -9 -8z"/>
<path d="M5483 2053 c9 -2 23 -2 30 0 6 3 -1 5 -18 5 -16 0 -22 -2 -12 -5z"/>
<path d="M3572 1801 c-61 -104 -112 -191 -112 -194 0 -4 123 -218 193 -335
l31 -52 230 2 230 3 41 67 c22 37 62 105 89 150 27 46 60 100 73 121 l24 38
-100 174 c-55 95 -105 182 -113 194 -12 20 -20 21 -243 21 l-230 0 -113 -189z
m476 22 c28 -13 52 -30 52 -36 0 -11 -159 -177 -170 -177 -3 0 -6 52 -8 117
-4 148 3 154 126 96z"/>
<path d="M4401 1531 c-58 -83 -212 -354 -209 -369 2 -10 50 -102 108 -205
l105 -186 235 0 235 0 49 87 c27 48 78 136 113 195 l63 108 -16 32 c-10 18
-27 48 -39 67 -12 19 -55 91 -96 159 -40 68 -78 125 -84 127 -5 2 -108 5 -228
7 l-218 3 -18 -25z"/>
<path d="M4306 1443 c-6 -14 -5 -15 5 -6 7 7 10 15 7 18 -3 3 -9 -2 -12 -12z"/>
<path d="M4276 1393 c-6 -14 -5 -15 5 -6 7 7 10 15 7 18 -3 3 -9 -2 -12 -12z"/>
<path d="M4240 1330 c-6 -11 -8 -20 -6 -20 3 0 10 9 16 20 6 11 8 20 6 20 -3
0 -10 -9 -16 -20z"/>
<path d="M5830 3024 c-58 -102 -106 -195 -108 -206 -2 -11 3 -27 10 -36 8 -9
59 -92 113 -184 l100 -167 225 -1 226 0 18 30 c10 17 23 41 29 53 7 12 22 36
33 52 12 17 31 46 41 65 11 19 41 69 67 111 l48 77 -26 41 c-14 22 -26 43 -26
46 0 3 -11 22 -23 43 -22 35 -37 61 -115 202 l-31 55 -238 2 -238 2 -105 -185z"/>
<path d="M8889 3053 c-40 -71 -90 -156 -111 -191 -21 -34 -38 -68 -38 -76 0
-7 36 -72 80 -145 44 -73 80 -137 80 -142 0 -5 3 -9 8 -9 4 0 18 -20 30 -44
l24 -44 71 -5 c40 -3 140 -6 223 -6 132 -1 153 1 166 17 12 14 100 154 153
243 6 10 25 43 44 75 25 42 32 61 24 73 -5 9 -56 98 -112 199 l-104 182 -233
0 -233 0 -72 -127z"/>
<path d="M8132 2566 c-81 -140 -110 -199 -105 -212 12 -32 164 -279 174 -282
5 -2 7 -8 3 -13 -3 -5 0 -9 5 -9 6 0 10 -3 9 -7 -1 -5 5 -20 12 -35 l13 -28
225 0 c220 0 224 0 243 23 10 12 18 26 19 30 0 4 22 43 49 85 27 42 72 115
100 161 l52 84 -93 161 c-50 88 -102 178 -115 199 l-23 37 -228 0 -227 -1
-113 -193z"/>
<path d="M8934 2288 c-17 -29 -67 -116 -112 -192 -45 -76 -82 -141 -82 -143 0
-7 189 -332 212 -366 l20 -27 225 2 225 3 100 165 c55 91 106 177 114 193 16
30 30 1 -180 365 l-30 52 -231 0 -231 0 -30 -52z"/>
<path d="M8132 1712 c-62 -104 -112 -193 -112 -198 0 -5 49 -94 109 -199 l109
-190 234 -3 233 -2 36 62 c20 35 71 123 113 196 43 72 76 136 74 140 -2 5 -52
92 -113 195 l-110 187 -231 0 -230 0 -112 -188z"/>
<path d="M7381 2169 c-63 -106 -114 -198 -114 -203 0 -6 29 -58 64 -116 35
-58 75 -126 89 -152 14 -27 28 -48 32 -48 5 0 8 -6 8 -12 1 -7 9 -23 19 -35
19 -23 23 -23 243 -23 l224 0 25 42 c13 24 27 50 32 58 4 8 17 31 30 51 12 20
49 80 81 134 l60 99 -34 60 c-18 34 -69 121 -112 194 l-79 132 -192 0 c-106 0
-208 3 -227 6 l-35 6 -114 -193z"/>
<path d="M5861 2198 c-46 -79 -96 -165 -113 -193 l-31 -50 20 -35 c60 -106 79
-140 112 -190 19 -30 47 -77 61 -105 l25 -50 233 0 c146 0 233 4 235 10 1 6
-16 13 -38 16 -38 6 -38 6 8 4 46 -2 49 -1 67 34 16 33 48 85 148 247 18 28
32 57 32 64 0 11 -22 50 -170 305 l-47 80 -229 3 -230 2 -83 -142z m621 -433
c7 -7 -14 -55 -24 -55 -11 0 4 40 16 41 6 0 2 4 -9 9 -15 6 -16 9 -4 9 9 1 18
-1 21 -4z m-115 -51 c-3 -3 -12 -4 -19 -1 -8 3 -5 6 6 6 11 1 17 -2 13 -5z
m-16 -37 c-10 -9 -11 -8 -5 6 3 10 9 15 12 12 3 -3 0 -11 -7 -18z m59 8 c0 -8
-2 -15 -4 -15 -2 0 -6 7 -10 15 -3 8 -1 15 4 15 6 0 10 -7 10 -15z m26 -22
c-10 -10 -19 5 -10 18 6 11 8 11 12 0 2 -7 1 -15 -2 -18z m-488 -31 c6 -18
-15 -14 -22 4 -4 10 -1 14 6 12 6 -2 14 -10 16 -16z m476 -2 c-5 -5 -23 -5
-44 0 l-35 9 33 -3 c18 -1 35 1 38 6 4 5 9 7 12 3 3 -3 1 -9 -4 -15z m-125 6
c-10 -9 -79 -14 -79 -5 0 5 19 9 42 9 23 0 39 -2 37 -4z m-282 -12 c-3 -3 -12
-4 -19 -1 -8 3 -5 6 6 6 11 1 17 -2 13 -5z m33 -18 c0 -2 -7 -7 -16 -10 -8 -3
-12 -2 -9 4 6 10 25 14 25 6z m160 -16 l35 -8 -38 -1 c-24 -1 -45 5 -55 16
-16 16 -16 16 3 9 11 -5 36 -12 55 -16z m83 -7 c-7 -2 -19 -2 -25 0 -7 3 -2 5
12 5 14 0 19 -2 13 -5z m90 0 c-13 -2 -33 -2 -45 0 -13 2 -3 4 22 4 25 0 35
-2 23 -4z"/>
<path d="M1620 1833 c1 -14 30 -47 36 -41 10 11 -7 48 -22 48 -8 0 -14 -3 -14
-7z"/>
<path d="M1670 1821 c0 -6 5 -13 10 -16 6 -3 10 1 10 9 0 9 -4 16 -10 16 -5 0
-10 -4 -10 -9z"/>
<path d="M1710 1800 c0 -5 5 -10 11 -10 5 0 7 5 4 10 -3 6 -8 10 -11 10 -2 0
-4 -4 -4 -10z"/>
<path d="M5109 1828 c-40 -68 -92 -156 -117 -195 l-44 -73 114 -195 113 -194
230 -1 230 0 35 62 c19 34 47 82 61 107 14 25 38 66 54 91 16 25 34 54 40 65
7 11 17 29 24 40 12 19 1 41 -101 215 l-114 195 -227 3 -226 2 -72 -122z"/>
</g>
</svg>
